<svg width="90.334473" height="26.125488" viewBox="0 0 90.3345 26.1255" fill="none" xmlns="http://www.w3.org/2000/svg" xmlns:xlink="http://www.w3.org/1999/xlink">
	<desc>
			Created with Pixso.
	</desc>
	<defs/>
	<path id="&lt;SS /&gt;" d="M-2.28882e-05 13.9453L15 20.5518L15 16.2378L4.87058 12.1729L4.87058 11.9751L15 7.91016L15 3.59619L-2.28882e-05 10.1953L-2.28882e-05 13.9453ZM30.8282 7.30225L35.252 7.30225C35.1861 3.41309 31.9854 0.725098 27.1295 0.725098C22.3468 0.725098 18.8458 3.36914 18.8604 7.33154C18.8531 10.5469 21.1236 12.3926 24.8077 13.2788L27.1807 13.8721C29.5611 14.4507 30.8795 15.1318 30.8941 16.604C30.8795 18.2007 29.3707 19.2847 27.0269 19.2847C24.6246 19.2847 22.9034 18.1787 22.7496 15.9961L18.2891 15.9961C18.4063 20.7129 21.7828 23.1519 27.0782 23.1519C32.4029 23.1519 35.5377 20.6104 35.545 16.6113C35.5377 12.9785 32.7984 11.0522 29.0045 10.1953L27.0489 9.72656C25.1519 9.29443 23.5626 8.59131 23.5919 7.02393C23.5919 5.61768 24.837 4.58496 27.1002 4.58496C29.3048 4.58496 30.6597 5.58838 30.8282 7.30225ZM49.8731 7.30225L54.2969 7.30225C54.231 3.41309 51.0303 0.725098 46.1744 0.725098C41.3916 0.725098 37.8907 3.36914 37.9053 7.33154C37.898 10.5469 40.1685 12.3926 43.8526 13.2788L46.2256 13.8721C48.606 14.4507 49.9244 15.1318 49.939 16.604C49.9244 18.2007 48.4156 19.2847 46.0718 19.2847C43.6695 19.2847 41.9483 18.1787 41.7945 15.9961L37.334 15.9961C37.4512 20.7129 40.8277 23.1519 46.1231 23.1519C51.4478 23.1519 54.5826 20.6104 54.5899 16.6113C54.5826 12.9785 51.8433 11.0522 48.0494 10.1953L46.0938 9.72656C44.1968 9.29443 42.6075 8.59131 42.6368 7.02393C42.6368 5.61768 43.8819 4.58496 46.1451 4.58496C48.3496 4.58496 49.7046 5.58838 49.8731 7.30225ZM72.8577 0L68.9465 0L61.9153 26.1255L65.8264 26.1255L72.8577 0ZM90.3345 15.9961L90.3345 12.2461L75.3345 5.63965L75.3345 9.95361L85.4639 14.0259L85.4639 14.2163L75.3345 18.2812L75.3345 22.6025L90.3345 15.9961Z" fill="#111827" fill-opacity="1.000000" fill-rule="evenodd"/>
</svg>
