<svg width="24.000000" height="24.000000" viewBox="0 0 24 24" fill="none" xmlns="http://www.w3.org/2000/svg" xmlns:xlink="http://www.w3.org/1999/xlink">
	<desc>
			Created with Pixso.
	</desc>
	<defs>
		<clipPath id="clip19_742">
			<rect width="24.000000" height="24.000000" fill="white" fill-opacity="0"/>
		</clipPath>
	</defs>
	<rect width="24.000000" height="24.000000" fill="#FFFFFF" fill-opacity="0"/>
	<g clip-path="url(#clip19_742)">
		<path d="M10.1362 7.5C10.1362 9.18784 10.8066 10.8065 12 12C13.1934 13.1935 14.812 13.864 16.5 13.864C18.188 13.864 19.8066 13.1935 21 12C21 13.78 20.4722 15.5201 19.4834 17.0001C18.4941 18.4802 17.0889 19.6337 15.4443 20.3149C13.7998 20.9961 11.9902 21.1743 10.2441 20.8271C8.49854 20.4798 6.89453 19.6226 5.63623 18.364C4.37744 17.1053 3.52002 15.5016 3.17285 13.7558C2.82568 12.01 3.00391 10.2004 3.68506 8.55585C4.36621 6.91132 5.52002 5.50571 7 4.51678C8.47998 3.52783 10.2202 3 12 3C10.8066 4.19348 10.1362 5.81216 10.1362 7.5Z" stroke="#D1D5DB" stroke-opacity="1.000000" stroke-width="2.000000" stroke-linejoin="round"/>
		<path d="M19 3L19 7" stroke="#D1D5DB" stroke-opacity="1.000000" stroke-width="2.000000" stroke-linejoin="round" stroke-linecap="round"/>
		<path d="M21 5L17 5" stroke="#D1D5DB" stroke-opacity="1.000000" stroke-width="2.000000" stroke-linejoin="round" stroke-linecap="round"/>
	</g>
</svg>
