<svg width="36.000000" height="36.000000" viewBox="0 0 36 36" fill="none" xmlns="http://www.w3.org/2000/svg" xmlns:xlink="http://www.w3.org/1999/xlink">
	<desc>
			Created with Pixso.
	</desc>
	<defs>
		<clipPath id="clip14_399">
			<rect id="Name=icon-figma, Size=24, Theme Mode=Light" width="24.000000" height="24.000000" transform="translate(6.000000 6.000000)" fill="white" fill-opacity="0"/>
		</clipPath>
	</defs>
	<rect id="Name=icon-figma, Size=24, Theme Mode=Light" width="24.000000" height="24.000000" transform="translate(6.000000 6.000000)" fill="#FFFFFF" fill-opacity="0"/>
	<g clip-path="url(#clip14_399)">
		<path id="Vector" d="M12.0251 9.0249C12.6814 8.36865 13.5718 8 14.5 8L18 8L18 15L14.5 15C13.5718 15 12.6814 14.6313 12.0251 13.9751C11.3687 13.3184 11 12.4282 11 11.5C11 10.5718 11.3687 9.68164 12.0251 9.0249Z" stroke="#4B5563" stroke-opacity="1.000000" stroke-width="2.000000" stroke-linejoin="round"/>
		<path id="Vector" d="M21.5 8C21.9597 8 22.4148 8.09033 22.8394 8.2666C23.2639 8.44238 23.6499 8.7002 23.9749 9.0249C24.2998 9.3501 24.5576 9.73584 24.7336 10.1606C24.9094 10.5854 25 11.0405 25 11.5C25 11.9595 24.9094 12.4146 24.7336 12.8394C24.5576 13.2642 24.2998 13.6499 23.9749 13.9751C23.6499 14.2998 23.2639 14.5576 22.8394 14.7334C22.4148 14.9097 21.9597 15 21.5 15L18 15L18 8L21.5 8Z" stroke="#4B5563" stroke-opacity="1.000000" stroke-width="2.000000" stroke-linejoin="round"/>
		<path id="Vector" d="M18.2664 17.1606C18.4424 16.7358 18.7002 16.3501 19.0251 16.0249C19.3501 15.7002 19.7361 15.4424 20.1606 15.2666C20.5852 15.0903 21.0403 15 21.5 15C21.9597 15 22.4148 15.0903 22.8394 15.2666C23.2639 15.4424 23.6499 15.7002 23.9749 16.0249C24.2998 16.3501 24.5576 16.7358 24.7336 17.1606C24.9094 17.5854 25 18.0405 25 18.5C25 18.9595 24.9094 19.4146 24.7336 19.8394C24.5576 20.2642 24.2998 20.6499 23.9749 20.9751C23.6499 21.2998 23.2639 21.5576 22.8394 21.7334C22.4148 21.9097 21.9597 22 21.5 22C21.0403 22 20.5852 21.9097 20.1606 21.7334C19.7361 21.5576 19.3501 21.2998 19.0251 20.9751C18.7002 20.6499 18.4424 20.2642 18.2664 19.8394C18.0906 19.4146 18 18.9595 18 18.5C18 18.0405 18.0906 17.5854 18.2664 17.1606Z" stroke="#4B5563" stroke-opacity="1.000000" stroke-width="2.000000" stroke-linejoin="round"/>
		<path id="Vector" d="M12.0251 23.0249C12.6814 22.3687 13.5718 22 14.5 22L18 22L18 25.5C18 26.4282 17.6313 27.3184 16.9749 27.9751C16.3186 28.6313 15.4282 29 14.5 29C13.5718 29 12.6814 28.6313 12.0251 27.9751C11.3687 27.3184 11 26.4282 11 25.5C11 24.5718 11.3687 23.6816 12.0251 23.0249Z" stroke="#4B5563" stroke-opacity="1.000000" stroke-width="2.000000" stroke-linejoin="round"/>
		<path id="Vector" d="M12.0251 16.0249C12.6814 15.3687 13.5718 15 14.5 15L18 15L18 22L14.5 22C13.5718 22 12.6814 21.6313 12.0251 20.9751C11.3687 20.3184 11 19.4282 11 18.5C11 17.5718 11.3687 16.6816 12.0251 16.0249Z" stroke="#4B5563" stroke-opacity="1.000000" stroke-width="2.000000" stroke-linejoin="round"/>
	</g>
</svg>
