<svg width="28.517822" height="28.571289" viewBox="0 0 28.5178 28.5713" fill="none" xmlns="http://www.w3.org/2000/svg" xmlns:xlink="http://www.w3.org/1999/xlink">
	<desc>
			Created with Pixso.
	</desc>
	<defs/>
	<path id="Vector" d="M27.5171 24.8936C27.5186 25.2646 27.4424 25.6323 27.2937 25.9727C27.145 26.313 26.9268 26.6182 26.6531 26.8691C26.3794 27.1201 26.0564 27.3115 25.7046 27.4302C25.3528 27.5493 24.9802 27.5938 24.6104 27.5601C20.5073 27.1143 16.5664 25.7124 13.1038 23.4668C9.88208 21.4199 7.15088 18.6885 5.10376 15.4668C2.85034 11.9883 1.448 8.02832 1.01025 3.90674C0.977051 3.53809 1.02075 3.1665 1.13892 2.81543C1.25708 2.46484 1.44702 2.14258 1.69678 1.86914C1.94629 1.5957 2.25 1.37695 2.58862 1.22754C2.92749 1.07812 3.29346 1.00049 3.66357 1L7.66357 1C8.31079 0.993652 8.93799 1.22314 9.42871 1.64502C9.91919 2.06689 10.2397 2.65283 10.3303 3.29346C10.4993 4.57373 10.8123 5.83057 11.2637 7.04004C11.4431 7.51758 11.4819 8.03613 11.3755 8.53467C11.2693 9.0332 11.0222 9.49072 10.6636 9.85352L8.97021 11.5469C10.8684 14.8848 13.6323 17.6489 16.9702 19.5469L18.6636 17.8535C19.0261 17.4951 19.4839 17.248 19.9824 17.1416C20.4812 17.0352 20.9998 17.0742 21.4771 17.2534C22.6868 17.7051 23.9436 18.0181 25.2236 18.187C25.8713 18.2783 26.4629 18.6045 26.8857 19.1035C27.3086 19.6025 27.5332 20.2397 27.5171 20.8936L27.5171 24.8936Z" stroke="#4B5563" stroke-opacity="1.000000" stroke-width="2.000000" stroke-linejoin="round"/>
</svg>
