<svg width="32.000000" height="32.000000" viewBox="0 0 32 32" fill="none" xmlns="http://www.w3.org/2000/svg" xmlns:xlink="http://www.w3.org/1999/xlink">
	<desc>
			Created with Pixso.
	</desc>
	<defs>
		<clipPath id="clip14_611">
			<rect id="Name=icon-copy, Size=32, Theme Mode=Light" width="32.000000" height="32.000000" fill="white" fill-opacity="0"/>
		</clipPath>
	</defs>
	<rect id="Name=icon-copy, Size=32, Theme Mode=Light" width="32.000000" height="32.000000" fill="#FFFFFF" fill-opacity="0"/>
	<g clip-path="url(#clip14_611)">
		<path id="Vector" d="M26.6667 10.6665C28.1394 10.6665 29.3335 11.8604 29.3335 13.333L29.3335 26.6665C29.3335 28.1392 28.1394 29.333 26.6667 29.333L13.3335 29.333C11.8606 29.333 10.6667 28.1392 10.6667 26.6665L10.6667 13.333C10.6667 11.8604 11.8606 10.6665 13.3335 10.6665L26.6667 10.6665Z" stroke="#4B5563" stroke-opacity="1.000000" stroke-width="2.000000" stroke-linejoin="round"/>
		<path id="Vector" d="M5.3335 21.333C3.8667 21.333 2.66675 20.1333 2.66675 18.6665L2.66675 5.33301C2.66675 3.8667 3.8667 2.6665 5.3335 2.6665L18.6667 2.6665C20.1333 2.6665 21.3335 3.8667 21.3335 5.33301" stroke="#4B5563" stroke-opacity="1.000000" stroke-width="2.000000" stroke-linejoin="round" stroke-linecap="round"/>
	</g>
</svg>
