<svg width="65.000000" height="100.000000" viewBox="0 0 65 100" fill="none" xmlns="http://www.w3.org/2000/svg" xmlns:xlink="http://www.w3.org/1999/xlink">
	<desc>
			Created with Pixso.
	</desc>
	<defs>
		<clipPath id="clip316_295">
			<rect id="icon-nodejs" width="56.320004" height="64.000000" transform="translate(4.340088 0.000000)" fill="white" fill-opacity="0"/>
		</clipPath>
		<clipPath id="clip316_294">
			<rect id="Tech" width="65.000000" height="100.000000" fill="white" fill-opacity="0"/>
		</clipPath>
	</defs>
	<g clip-path="url(#clip316_294)">
		<rect id="icon-nodejs" width="56.320004" height="64.000000" transform="translate(4.340088 0.000000)" fill="#FFFFFF" fill-opacity="0"/>
		<g clip-path="url(#clip316_295)">
			<path id="Vector" d="M32.5996 64C31.7415 64 30.9407 63.7667 30.1973 63.3585L22.5898 58.7517C21.4458 58.1102 22.0178 57.877 22.3611 57.7604C23.9055 57.2356 24.1914 57.1189 25.793 56.1859C25.9646 56.0692 26.1934 56.1276 26.3647 56.2441L32.199 59.8014C32.428 59.918 32.7139 59.918 32.8855 59.8014L55.7075 46.3307C55.9363 46.214 56.0505 45.9807 56.0505 45.6892L56.0505 18.806C56.0505 18.5145 55.9363 18.2812 55.7075 18.1646L32.8855 4.7522C32.6567 4.63562 32.3706 4.63562 32.199 4.7522L9.3772 18.1646C9.14844 18.2812 9.03394 18.5728 9.03394 18.806L9.03394 45.6892C9.03394 45.9225 9.14844 46.214 9.3772 46.3307L15.6118 50.0045C18.9863 51.7539 21.1028 49.7129 21.1028 47.6719L21.1028 21.1387C21.1028 20.7887 21.3887 20.439 21.7891 20.439L24.7063 20.439C25.0493 20.439 25.3926 20.7305 25.3926 21.1387L25.3926 47.6719C25.3926 52.2788 22.9331 54.9613 18.6431 54.9613C17.3276 54.9613 16.2981 54.9613 13.3809 53.5034L7.37524 50.0045C5.88818 49.1298 4.9729 47.4969 4.9729 45.7476L4.9729 18.8644C4.9729 17.115 5.88818 15.4822 7.37524 14.6074L30.1973 1.13672C31.6272 0.320312 33.5718 0.320312 35.0017 1.13672L57.8237 14.6074C59.3108 15.4822 60.2261 17.115 60.2261 18.8644L60.2261 45.7476C60.2261 47.4969 59.3108 49.1298 57.8237 50.0045L35.0017 63.4752C34.3154 63.7668 33.4575 64 32.5996 64Z" fill="#5FA04E" fill-opacity="1.000000" fill-rule="nonzero"/>
			<path id="Vector" d="M39.6921 45.5142C29.6824 45.5142 27.6233 40.849 27.6233 36.8835C27.6233 36.5337 27.9092 36.1838 28.3096 36.1838L31.2839 36.1838C31.6272 36.1838 31.9131 36.4171 31.9131 36.767C32.3706 39.8577 33.6863 41.3739 39.7493 41.3739C44.5537 41.3739 46.613 40.2659 46.613 37.6417C46.613 36.1255 46.041 35.0176 38.5481 34.2594C32.3135 33.6179 28.4241 32.2185 28.4241 27.145C28.4241 22.4215 32.3135 19.6224 38.834 19.6224C46.1553 19.6224 49.7588 22.1882 50.2163 27.7865C50.2163 27.9614 50.1592 28.1364 50.0449 28.3114C49.9304 28.428 49.7588 28.5446 49.5872 28.5446L46.5557 28.5446C46.2698 28.5446 45.9839 28.3114 45.9265 28.0198C45.2402 24.8124 43.467 23.7627 38.7769 23.7627C33.5146 23.7627 32.8855 25.6289 32.8855 27.0283C32.8855 28.7195 33.6292 29.2444 40.7217 30.1774C47.7568 31.1105 51.0745 32.4517 51.0745 37.4668C51.0745 42.5984 46.8989 45.5142 39.6921 45.5142Z" fill="#5FA04E" fill-opacity="1.000000" fill-rule="nonzero"/>
		</g>
		<path id="Node.js" d="M11.9663 79.9087L10.4062 79.9087L10.4062 90.2139L10.2788 90.2139L3.12012 79.9087L1.58643 79.9087L1.58643 93L3.16846 93L3.16846 82.7212L3.30029 82.7212L10.4326 93L11.9663 93L11.9663 79.9087ZM18.9213 93.2065C21.5799 93.2065 23.3685 91.1851 23.3685 88.144C23.3685 85.0723 21.5799 83.0552 18.9213 83.0552C16.2626 83.0552 14.4696 85.0723 14.4696 88.144C14.4696 91.1851 16.2626 93.2065 18.9213 93.2065ZM18.9213 91.8486C16.8998 91.8486 15.9813 90.1128 15.9813 88.144C15.9813 86.1753 16.8998 84.4087 18.9213 84.4087C20.9383 84.4087 21.8612 86.1753 21.8612 88.144C21.8612 90.1128 20.9383 91.8486 18.9213 91.8486ZM29.3786 93.2065C31.2683 93.2065 31.9099 92.0288 32.2395 91.4927L32.4197 91.4927L32.4197 93L33.8786 93L33.8786 79.9087L32.3713 79.9087L32.3713 84.7427L32.2395 84.7427C31.9099 84.2285 31.321 83.0552 29.405 83.0552C26.9221 83.0552 25.2082 85.0239 25.2082 88.1177C25.2082 91.2378 26.9221 93.2065 29.3786 93.2065ZM29.5808 91.8486C27.6911 91.8486 26.7199 90.1875 26.7199 88.0913C26.7199 86.0215 27.6648 84.4087 29.5808 84.4087C31.4221 84.4087 32.3933 85.894 32.3933 88.0913C32.3933 90.3149 31.3957 91.8486 29.5808 91.8486ZM40.9606 93.2065C42.9557 93.2065 44.4103 92.209 44.8718 90.7236L43.4128 90.3149C43.0304 91.3389 42.1428 91.8486 40.9606 91.8486C39.1896 91.8486 37.9679 90.7061 37.8976 88.6011L45.0256 88.6011L45.0256 87.9639C45.0256 84.3076 42.8503 83.0552 40.8068 83.0552C38.1481 83.0552 36.3815 85.1514 36.3815 88.166C36.3815 91.1851 38.1218 93.2065 40.9606 93.2065ZM37.8976 87.3003C37.9987 85.771 39.0798 84.4087 40.8068 84.4087C42.4416 84.4087 43.4919 85.6348 43.4919 87.3003L37.8976 87.3003ZM48.4245 93.1011C49.0574 93.1011 49.5759 92.5825 49.5759 91.9497C49.5759 91.3169 49.0574 90.8027 48.4245 90.8027C47.7917 90.8027 47.2776 91.3169 47.2776 91.9497C47.2776 92.5825 47.7917 93.1011 48.4245 93.1011ZM52.2861 83.1826L52.2861 93.7163C52.2861 94.7139 51.8774 95.2764 50.959 95.2764L50.6777 95.2764L50.6777 96.6826L50.981 96.6826C52.875 96.6826 53.7935 95.5312 53.7935 93.7163L53.7935 83.1826L52.2861 83.1826ZM53.0288 81.5435C53.6177 81.5435 54.1011 81.0864 54.1011 80.5239C54.1011 79.9614 53.6177 79.5 53.0288 79.5C52.4399 79.5 51.9565 79.9614 51.9565 80.5239C51.9565 81.0864 52.4399 81.5435 53.0288 81.5435ZM63.5126 85.3799C63.038 83.9868 61.9789 83.0552 60.0321 83.0552C57.9623 83.0552 56.4286 84.2285 56.4286 85.894C56.4286 87.2476 57.2328 88.1528 59.0389 88.5747L60.6737 88.9614C61.6625 89.1899 62.1327 89.6646 62.1327 90.3413C62.1327 91.1851 61.2362 91.875 59.8299 91.875C58.5951 91.875 57.8216 91.3433 57.5536 90.2886L56.121 90.6489C56.4725 92.3145 57.848 93.2065 59.8563 93.2065C62.1371 93.2065 63.6883 91.9585 63.6883 90.2622C63.6883 88.8955 62.8358 88.0342 61.0824 87.6035L59.6234 87.2476C58.4632 86.9575 57.9359 86.5708 57.9359 85.8149C57.9359 84.9712 58.8324 84.356 60.0321 84.356C61.3505 84.356 61.8954 85.0854 62.1547 85.7622L63.5126 85.3799Z" fill="#4B5563" fill-opacity="1.000000" fill-rule="evenodd"/>
	</g>
</svg>
