<svg width="84.000000" height="100.000000" viewBox="0 0 84 100" fill="none" xmlns="http://www.w3.org/2000/svg" xmlns:xlink="http://www.w3.org/1999/xlink">
	<desc>
			Created with Pixso.
	</desc>
	<defs>
		<clipPath id="clip316_316">
			<rect id="icon-mongodb" width="29.767441" height="64.000000" transform="translate(27.116211 0.000000)" fill="white" fill-opacity="0"/>
		</clipPath>
		<clipPath id="clip316_315">
			<rect id="Tech" width="84.000000" height="100.000000" fill="white" fill-opacity="0"/>
		</clipPath>
	</defs>
	<g clip-path="url(#clip316_315)">
		<rect id="icon-mongodb" width="29.767441" height="64.000000" transform="translate(27.116211 0.000000)" fill="#FFFFFF" fill-opacity="0"/>
		<g clip-path="url(#clip316_316)">
			<path id="Vector" d="M47.7075 7.1333C45.0095 3.94629 42.6863 0.709595 42.2117 0.0373535C42.1619 -0.0124512 42.0869 -0.0124512 42.0369 0.0373535C41.5623 0.709595 39.239 3.94629 36.541 7.1333C13.3835 36.5376 40.1882 56.3812 40.1882 56.3812L40.4131 56.5306C40.613 59.5931 41.1125 64 41.1125 64L42.1118 64L43.1111 64C43.1111 64 43.6106 59.618 43.8105 56.5306L44.0354 56.3564C44.0603 56.3564 70.865 36.5376 47.7075 7.1333ZM42.1118 55.933C42.1118 55.933 40.9128 54.9122 40.5879 54.3893L40.5879 54.3397L42.0369 22.3209C42.0369 22.2213 42.1868 22.2213 42.1868 22.3209L43.6357 54.3397L43.6357 54.3893C43.3108 54.9122 42.1118 55.933 42.1118 55.933Z" fill="#00684A" fill-opacity="1.000000" fill-rule="nonzero"/>
		</g>
		<path id="MongoDB" d="M1.58643 79.9087L1.58643 93L3.06738 93L3.06738 83.0552L3.19482 83.0552L7.28613 93L8.71875 93L12.8101 83.0552L12.9375 83.0552L12.9375 93L14.4185 93L14.4185 79.9087L12.5288 79.9087L8.08154 90.7764L7.92773 90.7764L3.47607 79.9087L1.58643 79.9087ZM21.3758 93.2065C24.0345 93.2065 25.8231 91.1851 25.8231 88.144C25.8231 85.0723 24.0345 83.0552 21.3758 83.0552C18.7171 83.0552 16.9241 85.0723 16.9241 88.144C16.9241 91.1851 18.7171 93.2065 21.3758 93.2065ZM21.3758 91.8486C19.3543 91.8486 18.4359 90.1128 18.4359 88.144C18.4359 86.1753 19.3543 84.4087 21.3758 84.4087C23.3929 84.4087 24.3157 86.1753 24.3157 88.144C24.3157 90.1128 23.3929 91.8486 21.3758 91.8486ZM29.6315 87.0938C29.6315 85.3799 30.695 84.4087 32.1408 84.4087C33.5383 84.4087 34.3908 85.3228 34.3908 86.8652L34.3908 93L35.8981 93L35.8981 86.7598C35.8981 84.2549 34.5622 83.0552 32.5759 83.0552C31.0905 83.0552 30.1721 83.7188 29.7106 84.7163L29.5832 84.7163L29.5832 83.1826L28.1242 83.1826L28.1242 93L29.6315 93L29.6315 87.0938ZM42.6222 96.8848C44.9732 96.8848 46.8673 95.8125 46.8673 93.2812L46.8673 83.1826L45.4083 83.1826L45.4083 84.7427L45.2545 84.7427C44.9249 84.2285 44.3097 83.0552 42.3936 83.0552C39.9107 83.0552 38.1969 85.0239 38.1969 88.0386C38.1969 91.106 39.9898 92.8462 42.3673 92.8462C44.2833 92.8462 44.8985 91.7212 45.2281 91.1851L45.36 91.1851L45.36 93.1802C45.36 94.8149 44.2086 95.5576 42.6222 95.5576C40.838 95.5576 40.214 94.6172 39.8097 94.0723L38.61 94.916C39.2208 95.9487 40.4293 96.8848 42.6222 96.8848ZM42.5694 91.4927C40.6798 91.4927 39.7086 90.0601 39.7086 88.0122C39.7086 86.0215 40.6534 84.4087 42.5694 84.4087C44.4107 84.4087 45.3819 85.894 45.3819 88.0122C45.3819 90.1875 44.3844 91.4927 42.5694 91.4927ZM53.6173 93.2065C56.276 93.2065 58.0645 91.1851 58.0645 88.144C58.0645 85.0723 56.276 83.0552 53.6173 83.0552C50.9586 83.0552 49.1656 85.0723 49.1656 88.144C49.1656 91.1851 50.9586 93.2065 53.6173 93.2065ZM53.6173 91.8486C51.5958 91.8486 50.6773 90.1128 50.6773 88.144C50.6773 86.1753 51.5958 84.4087 53.6173 84.4087C55.6344 84.4087 56.5572 86.1753 56.5572 88.144C56.5572 90.1128 55.6344 91.8486 53.6173 91.8486ZM64.6108 93C68.601 93 70.851 90.5215 70.851 86.4302C70.851 82.3652 68.601 79.9087 64.791 79.9087L60.5722 79.9087L60.5722 93L64.6108 93ZM62.1543 91.5938L62.1543 81.3149L64.6855 81.3149C67.7573 81.3149 69.3173 83.2573 69.3173 86.4302C69.3173 89.625 67.7573 91.5938 64.5097 91.5938L62.1543 91.5938ZM73.5097 93L78.2382 93C81.332 93 82.6108 91.4927 82.6108 89.5239C82.6108 87.4497 81.1782 86.3247 79.9785 86.25L79.9785 86.1226C81.1035 85.8149 82.101 85.0723 82.101 83.3848C82.101 81.4688 80.8222 79.9087 78.0844 79.9087L73.5097 79.9087L73.5097 93ZM75.0918 91.5938L75.0918 87.041L78.3173 87.041C80.0268 87.041 81.1035 88.1924 81.1035 89.5239C81.1035 90.6753 80.3081 91.5938 78.2382 91.5938L75.0918 91.5938ZM75.0918 85.6611L75.0918 81.3149L78.0844 81.3149C79.8247 81.3149 80.5893 82.2378 80.5893 83.3848C80.5893 84.769 79.4643 85.6611 78.0361 85.6611L75.0918 85.6611Z" fill="#4B5563" fill-opacity="1.000000" fill-rule="evenodd"/>
	</g>
</svg>
