<svg width="88.000000" height="100.000000" viewBox="0 0 88 100" fill="none" xmlns="http://www.w3.org/2000/svg" xmlns:xlink="http://www.w3.org/1999/xlink">
	<desc>
			Created with Pixso.
	</desc>
	<defs>
		<clipPath id="clip316_320">
			<rect id="icon-sass" width="64.000000" height="64.000000" transform="translate(12.000000 0.000000)" fill="white" fill-opacity="0"/>
		</clipPath>
		<clipPath id="clip316_319">
			<rect id="Tech" width="88.000000" height="100.000000" fill="white" fill-opacity="0"/>
		</clipPath>
	</defs>
	<g clip-path="url(#clip316_319)">
		<rect id="icon-sass" width="64.000000" height="64.000000" transform="translate(12.000000 0.000000)" fill="#FFFFFF" fill-opacity="0"/>
		<g clip-path="url(#clip316_320)">
			<path id="Vector" d="M65.156 34.608C63.1052 34.6187 61.3293 35.1107 59.8413 35.8453C59.2974 34.7587 58.7454 33.8027 58.6533 33.092C58.5454 32.2627 58.4199 31.7667 58.5508 30.7787C58.6814 29.7906 59.2534 28.3907 59.2454 28.2854C59.2373 28.1801 59.1174 27.6774 57.9346 27.668C56.752 27.66 55.74 27.896 55.6213 28.208C55.5027 28.52 55.2747 29.2227 55.1333 29.9561C54.9268 31.0281 52.772 34.8534 51.5493 36.8534C51.1494 36.072 50.8093 35.384 50.7388 34.8401C50.6306 34.0107 50.5054 33.5146 50.636 32.5267C50.7666 31.5387 51.3386 30.1387 51.3306 30.0333C51.3228 29.928 51.2026 29.4254 50.02 29.416C48.8374 29.4081 47.8254 29.644 47.7068 29.9561C47.5879 30.2681 47.46 30.9973 47.2188 31.704C46.9761 32.4093 44.1133 38.7893 43.3628 40.444C42.98 41.2867 42.6479 41.964 42.4133 42.4254L42.4121 42.4227C42.4121 42.4227 42.3975 42.4534 42.3733 42.5054C42.1721 42.8987 42.0535 43.1161 42.0535 43.1161C42.0535 43.1161 42.0547 43.1187 42.0574 43.124C41.8975 43.4133 41.7266 43.6814 41.6426 43.6814C41.584 43.6814 41.4653 42.912 41.668 41.8561C42.0947 39.6427 43.1174 36.192 43.1079 36.072C43.1028 36.0107 43.2986 35.4094 42.4399 35.0947C41.6055 34.7893 41.3081 35.2987 41.2319 35.3C41.1587 35.3014 41.104 35.48 41.104 35.48C41.104 35.48 42.0334 31.5988 39.3306 31.5988C37.6399 31.5988 35.2986 33.448 34.1453 35.124C33.4172 35.5214 31.8586 36.3721 30.2068 37.28C29.572 37.6294 28.9241 37.9854 28.3093 38.324C28.2681 38.2773 28.2253 38.2321 28.1826 38.1853C24.9041 34.688 18.8455 32.2147 19.1013 27.5121C19.1946 25.8027 19.7893 21.3014 30.7454 15.8427C39.72 11.3707 46.9053 12.6013 48.1467 15.328C49.9199 19.2253 44.3066 26.4667 34.9866 27.5121C31.436 27.9106 29.5654 26.5333 29.1001 26.0214C28.6106 25.4813 28.5374 25.4574 28.3547 25.5587C28.0574 25.724 28.2454 26.2001 28.3547 26.484C28.6333 27.208 29.7747 28.4921 31.7214 29.1321C33.4346 29.6947 37.604 30.0027 42.6453 28.052C48.2935 25.868 52.7026 19.7906 51.4067 14.712C50.0894 9.54675 41.5239 7.84802 33.4172 10.728C28.5867 12.4427 23.364 15.1334 19.6079 18.6454C15.1426 22.8214 14.4307 26.4574 14.7241 27.9761C15.7666 33.3734 23.2053 36.8881 26.1841 39.4921C26.0374 39.5734 25.8987 39.6494 25.7734 39.7188C24.28 40.4574 18.6094 43.4254 17.1907 46.5601C15.5813 50.116 17.4468 52.668 18.6814 53.0121C22.5066 54.076 26.4321 52.1614 28.5427 49.0146C30.6521 45.8694 30.3948 41.772 29.4268 39.9027C29.4148 39.88 29.4014 39.8574 29.3894 39.8334C29.7747 39.6053 30.168 39.3734 30.5574 39.144C31.3174 38.6974 32.064 38.2814 32.7107 37.9293C32.3479 38.9214 32.0828 40.1121 31.9453 41.8307C31.7827 43.8494 32.6106 46.4587 33.6934 47.4854C34.1707 47.9374 34.7439 47.948 35.1067 47.948C36.3667 47.948 36.9414 46.9 37.5747 45.66C38.3506 44.14 39.04 42.3694 39.04 42.3694C39.04 42.3694 38.176 47.1506 40.5308 47.1506C41.3894 47.1506 42.252 46.0374 42.6375 45.4707C42.6387 45.4774 42.6387 45.48 42.6387 45.48C42.6387 45.48 42.6614 45.4427 42.7053 45.3694C42.7947 45.2334 42.8455 45.1467 42.8455 45.1467C42.8455 45.1467 42.8467 45.1373 42.8494 45.1213C43.1946 44.5227 43.96 43.1573 45.1067 40.9054C46.5894 37.9961 48.0107 34.3507 48.0107 34.3507C48.0107 34.3507 48.1426 35.2413 48.5759 36.7161C48.8306 37.5826 49.3721 38.5414 49.8 39.4614C49.4561 39.9387 49.2454 40.212 49.2454 40.212C49.2454 40.212 49.2466 40.2174 49.2507 40.2267C48.9761 40.592 48.668 40.9854 48.3455 41.3694C47.1746 42.7627 45.7812 44.3547 45.5947 44.8134C45.3748 45.3547 45.4268 45.7521 45.8521 46.0734C46.1626 46.3066 46.7146 46.344 47.292 46.3054C48.344 46.2347 49.0828 45.9734 49.448 45.8147C50.0173 45.6134 50.6799 45.2974 51.3013 44.8401C52.4495 43.9961 53.1414 42.7893 53.0747 41.1893C53.0374 40.308 52.7573 39.4347 52.4014 38.6107C52.5054 38.4614 52.6094 38.3093 52.7146 38.1573C54.5239 35.5121 55.928 32.6053 55.928 32.6053C55.928 32.6053 56.0601 33.4961 56.4934 34.9707C56.7119 35.7161 57.1453 36.5306 57.5347 37.328C55.8333 38.7107 54.7786 40.3174 54.4121 41.3707C53.7346 43.3201 54.2654 44.2028 55.26 44.4041C55.7107 44.4948 56.3479 44.2881 56.8267 44.0853C57.4226 43.8881 58.1387 43.5587 58.8081 43.0667C59.9561 42.2227 61.0601 41.0414 60.9934 39.4427C60.9626 38.7147 60.7654 37.9921 60.4973 37.2987C61.9399 36.6974 63.8066 36.364 66.1853 36.6414C71.2881 37.2373 72.2881 40.4227 72.0974 41.756C71.9053 43.0894 70.8359 43.8228 70.4773 44.0441C70.1201 44.2654 70.0107 44.3427 70.04 44.5067C70.084 44.7454 70.2493 44.7373 70.5547 44.6853C70.9746 44.6147 73.2334 43.6013 73.3306 41.14C73.4519 38.0121 70.4587 34.5801 65.156 34.608ZM25.8267 47.8667C24.136 49.7107 21.7761 50.4067 20.7627 49.8201C19.6694 49.1866 20.1028 46.472 22.176 44.5146C23.4399 43.3228 25.072 42.224 26.1548 41.548C26.4014 41.4 26.7627 41.1827 27.2026 40.9187C27.2761 40.8773 27.3174 40.8547 27.3174 40.8547L27.3159 40.8521C27.4014 40.8014 27.488 40.7494 27.5774 40.6947C28.3333 43.48 27.6013 45.932 25.8267 47.8667ZM38.1399 39.4973C37.552 40.932 36.3201 44.604 35.5693 44.4067C34.9253 44.2373 34.5334 41.4467 35.4414 38.7001C35.8975 37.3174 36.8733 35.6654 37.4468 35.024C38.3694 33.9921 39.3853 33.6547 39.6321 34.0734C39.9453 34.6067 38.5093 38.5974 38.1399 39.4973ZM48.312 44.3507C48.0627 44.4813 47.8333 44.5627 47.728 44.5C47.6494 44.4534 47.8306 44.2814 47.8306 44.2814C47.8306 44.2814 49.1028 42.912 49.604 42.2893C49.896 41.9268 50.2334 41.496 50.6013 41.016C50.604 41.0641 50.6055 41.1121 50.6055 41.1587C50.6028 42.7987 49.0188 43.9054 48.312 44.3507ZM56.1479 42.5641C55.9614 42.432 55.9934 42.004 56.6052 40.6693C56.8455 40.1454 57.3948 39.264 58.3467 38.4214C58.4573 38.7681 58.5239 39.1 58.5227 39.4094C58.5107 41.4734 57.0386 42.244 56.1479 42.5641Z" fill="#F06292" fill-opacity="1.000000" fill-rule="nonzero"/>
		</g>
		<path id="Sass/Scss" d="M8.74512 83.1826L10.2788 83.1826C10.2085 81.2051 8.38477 79.7285 5.85352 79.7285C3.34863 79.7285 1.37988 81.1875 1.37988 83.3848C1.37988 85.1514 2.65869 86.1973 4.70654 86.7861L6.31494 87.2476C7.69482 87.6299 8.92529 88.1177 8.92529 89.4185C8.92529 90.8511 7.54102 91.8003 5.72607 91.8003C4.16602 91.8003 2.78613 91.106 2.65869 89.625L1.02393 89.625C1.17773 91.7739 2.91357 93.2285 5.72607 93.2285C8.74512 93.2285 10.459 91.5674 10.459 89.4448C10.459 86.9927 8.12988 86.1973 6.77637 85.8413L5.44482 85.481C4.47363 85.2261 2.91357 84.7163 2.91357 83.3101C2.91357 82.0576 4.06494 81.1348 5.80518 81.1348C7.38721 81.1348 8.59131 81.8906 8.74512 83.1826ZM15.7516 93.2285C17.4611 93.2285 18.3576 92.3101 18.6652 91.6685L18.7399 91.6685L18.7399 93L20.2516 93L20.2516 86.5312C20.2516 83.4111 17.8742 83.0552 16.6173 83.0552C15.1364 83.0552 13.4489 83.5649 12.6798 85.3535L14.1124 85.8677C14.4464 85.1514 15.233 84.3823 16.6701 84.3823C18.0587 84.3823 18.7399 85.1206 18.7399 86.3774L18.7399 86.4302C18.7399 87.1597 18.0016 87.0938 16.2086 87.3223C14.3893 87.5596 12.3986 87.9639 12.3986 90.2139C12.3986 92.1299 13.8839 93.2285 15.7516 93.2285ZM15.9801 91.875C14.7804 91.875 13.9103 91.3389 13.9103 90.2886C13.9103 89.1372 14.9562 88.7812 16.1339 88.6274C16.7711 88.5527 18.485 88.3726 18.7399 88.0649L18.7399 89.4448C18.7399 90.6753 17.7687 91.875 15.9801 91.875ZM29.9671 85.3799C29.4925 83.9868 28.4334 83.0552 26.4866 83.0552C24.4168 83.0552 22.8831 84.2285 22.8831 85.894C22.8831 87.2476 23.6873 88.1528 25.4935 88.5747L27.1282 88.9614C28.117 89.1899 28.5872 89.6646 28.5872 90.3413C28.5872 91.1851 27.6907 91.875 26.2845 91.875C25.0496 91.875 24.2762 91.3433 24.0081 90.2886L22.5755 90.6489C22.9271 92.3145 24.3026 93.2065 26.3109 93.2065C28.5916 93.2065 30.1429 91.9585 30.1429 90.2622C30.1429 88.8955 29.2903 88.0342 27.5369 87.6035L26.0779 87.2476C24.9178 86.9575 24.3904 86.5708 24.3904 85.8149C24.3904 84.9712 25.2869 84.356 26.4866 84.356C27.805 84.356 28.3499 85.0854 28.6092 85.7622L29.9671 85.3799ZM39.3762 85.3799C38.9016 83.9868 37.8425 83.0552 35.8957 83.0552C33.8259 83.0552 32.2922 84.2285 32.2922 85.894C32.2922 87.2476 33.0964 88.1528 34.9026 88.5747L36.5373 88.9614C37.5261 89.1899 37.9963 89.6646 37.9963 90.3413C37.9963 91.1851 37.0998 91.875 35.6936 91.875C34.4587 91.875 33.6853 91.3433 33.4172 90.2886L31.9846 90.6489C32.3362 92.3145 33.7116 93.2065 35.7199 93.2065C38.0007 93.2065 39.552 91.9585 39.552 90.2622C39.552 88.8955 38.6994 88.0342 36.946 87.6035L35.487 87.2476C34.3269 86.9575 33.7995 86.5708 33.7995 85.8149C33.7995 84.9712 34.696 84.356 35.8957 84.356C37.2141 84.356 37.759 85.0854 38.0183 85.7622L39.3762 85.3799ZM46.4562 79.2935L45.0763 79.2935L40.8576 94.9688L42.2374 94.9688L46.4562 79.2935ZM55.6116 83.1826L57.1453 83.1826C57.075 81.2051 55.2512 79.7285 52.72 79.7285C50.2151 79.7285 48.2464 81.1875 48.2464 83.3848C48.2464 85.1514 49.5252 86.1973 51.573 86.7861L53.1814 87.2476C54.5613 87.6299 55.7918 88.1177 55.7918 89.4185C55.7918 90.8511 54.4075 91.8003 52.5926 91.8003C51.0325 91.8003 49.6526 91.106 49.5252 89.625L47.8904 89.625C48.0442 91.7739 49.7801 93.2285 52.5926 93.2285C55.6116 93.2285 57.3255 91.5674 57.3255 89.4448C57.3255 86.9927 54.9964 86.1973 53.6428 85.8413L52.3113 85.481C51.3401 85.2261 49.7801 84.7163 49.7801 83.3101C49.7801 82.0576 50.9314 81.1348 52.6717 81.1348C54.2537 81.1348 55.4578 81.8906 55.6116 83.1826ZM63.7167 93.2065C65.8876 93.2065 67.3202 91.875 67.5751 90.1348L66.0678 90.1348C65.7865 91.2114 64.89 91.8486 63.7167 91.8486C61.9281 91.8486 60.7768 90.3677 60.7768 88.0913C60.7768 85.8677 61.9501 84.4087 63.7167 84.4087C65.0439 84.4087 65.8393 85.2261 66.0678 86.1226L67.5751 86.1226C67.3202 84.2812 65.7602 83.0552 63.6903 83.0552C61.0317 83.0552 59.265 85.1514 59.265 88.144C59.265 91.084 60.9525 93.2065 63.7167 93.2065ZM76.7313 85.3799C76.2567 83.9868 75.1976 83.0552 73.2508 83.0552C71.181 83.0552 69.6473 84.2285 69.6473 85.894C69.6473 87.2476 70.4515 88.1528 72.2577 88.5747L73.8924 88.9614C74.8812 89.1899 75.3514 89.6646 75.3514 90.3413C75.3514 91.1851 74.4549 91.875 73.0487 91.875C71.8138 91.875 71.0404 91.3433 70.7723 90.2886L69.3397 90.6489C69.6913 92.3145 71.0668 93.2065 73.0751 93.2065C75.3558 93.2065 76.9071 91.9585 76.9071 90.2622C76.9071 88.8955 76.0546 88.0342 74.3011 87.6035L72.8422 87.2476C71.682 86.9575 71.1547 86.5708 71.1547 85.8149C71.1547 84.9712 72.0511 84.356 73.2508 84.356C74.5692 84.356 75.1141 85.0854 75.3734 85.7622L76.7313 85.3799ZM86.1404 85.3799C85.6658 83.9868 84.6067 83.0552 82.6599 83.0552C80.5901 83.0552 79.0564 84.2285 79.0564 85.894C79.0564 87.2476 79.8606 88.1528 81.6668 88.5747L83.3015 88.9614C84.2903 89.1899 84.7605 89.6646 84.7605 90.3413C84.7605 91.1851 83.864 91.875 82.4578 91.875C81.2229 91.875 80.4495 91.3433 80.1814 90.2886L78.7488 90.6489C79.1004 92.3145 80.4759 93.2065 82.4842 93.2065C84.7649 93.2065 86.3162 91.9585 86.3162 90.2622C86.3162 88.8955 85.4636 88.0342 83.7102 87.6035L82.2512 87.2476C81.0911 86.9575 80.5637 86.5708 80.5637 85.8149C80.5637 84.9712 81.4602 84.356 82.6599 84.356C83.9783 84.356 84.5232 85.0854 84.7825 85.7622L86.1404 85.3799Z" fill="#4B5563" fill-opacity="1.000000" fill-rule="evenodd"/>
	</g>
</svg>
