<svg width="70.000000" height="100.000000" viewBox="0 0 70 100" fill="none" xmlns="http://www.w3.org/2000/svg" xmlns:xlink="http://www.w3.org/1999/xlink">
	<desc>
			Created with Pixso.
	</desc>
	<defs>
		<clipPath id="clip316_340">
			<rect id="icon-cypress" width="64.000000" height="64.000000" transform="translate(3.000000 0.000000)" fill="white" fill-opacity="0"/>
		</clipPath>
		<clipPath id="clip316_339">
			<rect id="Tech" width="70.000000" height="100.000000" fill="white" fill-opacity="0"/>
		</clipPath>
	</defs>
	<g clip-path="url(#clip316_339)">
		<rect id="icon-cypress" width="64.000000" height="64.000000" transform="translate(3.000000 0.000000)" fill="#FFFFFF" fill-opacity="0"/>
		<g clip-path="url(#clip316_340)">
			<path id="Vector" d="M4.13867 40.4784C3.38403 37.7306 3 34.8765 3 32.0017C3 18.879 11.2417 6.88 23.5098 2.14832L25.1184 6.31128C14.5581 10.3851 7.46558 20.7086 7.46558 32.0017C7.46558 34.479 7.79468 36.9321 8.44312 39.2963L4.13867 40.4784Z" fill="#58D09E" fill-opacity="1.000000" fill-rule="nonzero"/>
			<path id="Vector" d="M23.2954 2.25049C25.9495 1.21289 28.7478 0.532471 31.6067 0.231934C44.6577 -1.13977 57.4524 5.80261 63.4404 17.5089L59.4685 19.5438C54.313 9.46729 43.3049 3.49255 32.0735 4.6731C29.6099 4.93201 27.2046 5.51587 24.9211 6.40771L23.2954 2.25049Z" fill="#58D09E" fill-opacity="1.000000" fill-rule="nonzero"/>
			<path id="Vector" d="M49.6472 55.2684C58.3616 49.7137 63.2153 39.8557 62.3135 29.5475C61.9941 25.895 60.9802 22.4066 59.3057 19.186L63.2627 17.1218C65.2102 20.866 66.3899 24.9148 66.761 29.1583C67.8088 41.1339 62.1724 52.5822 52.0474 59.0352L49.6472 55.2684Z" fill="#000000" fill-opacity="1.000000" fill-rule="nonzero"/>
			<path id="Vector" d="M25.5027 25.3992C28.092 25.3992 30.2012 26.78 31.2852 29.1887L31.3708 29.3772L35.7197 27.9004L35.6272 27.6777C33.9431 23.5764 30.064 21.0272 25.5027 21.0272C22.2957 21.0272 19.6892 22.0552 17.5352 24.1658C15.395 26.2627 14.3113 28.901 14.3113 32.0085C14.3113 35.0889 15.395 37.7134 17.5352 39.8103C19.6892 41.9209 22.2957 42.9489 25.5027 42.9489C30.064 42.9489 33.9431 40.3997 35.6272 36.3018L35.7197 36.0791L31.364 34.5989L31.2817 34.7942C30.311 37.1617 28.1504 38.5768 25.5027 38.5768C23.6985 38.5768 22.1755 37.9464 20.9683 36.7061C19.7473 35.4486 19.1301 33.8691 19.1301 32.012C19.1301 30.1412 19.7336 28.5925 20.9683 27.2769C22.1721 26.0298 23.6985 25.3992 25.5027 25.3992Z" fill="#000000" fill-opacity="1.000000" fill-rule="nonzero"/>
			<path id="Vector" d="M52.7415 21.4316L46.5439 37.1138L40.3054 21.4316L35.2019 21.4316L43.9512 42.8358L37.7261 57.932L42.1882 58.8195L57.5637 21.4316L52.7415 21.4316Z" fill="#000000" fill-opacity="1.000000" fill-rule="nonzero"/>
			<path id="Vector" d="M38.5244 55.986L37.4373 58.6174C37.2212 59.1382 36.7273 59.491 36.1716 59.515C35.8047 59.5287 35.4343 59.5391 35.0605 59.5391C22.2642 59.5322 10.9426 50.5107 8.13696 38.0801L3.78125 39.0634C5.35547 46.0359 9.30664 52.3644 14.9072 56.8871C20.5732 61.4612 27.7104 63.9863 35.0125 64.0001C35.0227 64.0001 35.0776 64.0001 35.0776 64.0001C35.5063 64.0001 35.9316 63.9899 36.3569 63.9728C38.6479 63.8767 40.6956 62.4412 41.5701 60.3134L42.99 56.8734L38.5244 55.986Z" fill="#000000" fill-opacity="1.000000" fill-rule="nonzero"/>
		</g>
		<path id="Cypress" d="M12.1201 84C11.6323 81.3149 9.48779 79.7285 6.85107 79.7285C3.50244 79.7285 1.07227 82.3125 1.07227 86.4565C1.07227 90.5962 3.50244 93.1802 6.85107 93.1802C9.48779 93.1802 11.6323 91.5938 12.1201 88.9087L10.5337 88.9087C10.1514 90.7236 8.59131 91.6948 6.85107 91.6948C4.47363 91.6948 2.60596 89.8535 2.60596 86.4565C2.60596 83.0552 4.47363 81.2139 6.85107 81.2139C8.59131 81.2139 10.1514 82.1851 10.5337 84L12.1201 84ZM15.442 96.6826C16.8043 96.6826 17.7623 95.9575 18.3336 94.4326L22.4996 83.1826L20.8648 83.1826L18.1534 91.0049L18.0523 91.0049L15.3409 83.1826L13.7061 83.1826L17.336 93.0527L17.0548 93.8174C16.5055 95.3159 15.8287 95.4565 14.7257 95.1753L14.3434 96.5024C14.4972 96.5815 14.9322 96.6826 15.442 96.6826ZM24.4935 96.6826L26.0008 96.6826L26.0008 91.4927L26.1327 91.4927C26.4623 92.0288 27.1039 93.2065 28.9935 93.2065C31.4501 93.2065 33.1639 91.2378 33.1639 88.1177C33.1639 85.0239 31.4501 83.0552 28.9672 83.0552C27.0511 83.0552 26.4623 84.2285 26.1327 84.7427L25.9525 84.7427L25.9525 83.1826L24.4935 83.1826L24.4935 96.6826ZM25.9789 88.0913C25.9789 85.894 26.9501 84.4087 28.7914 84.4087C30.7074 84.4087 31.6522 86.0215 31.6522 88.0913C31.6522 90.1875 30.681 91.8486 28.7914 91.8486C26.9764 91.8486 25.9789 90.3149 25.9789 88.0913ZM35.4623 93L36.9696 93L36.9696 86.7861C36.9696 85.459 38.0199 84.4878 39.4525 84.4878C39.8524 84.4878 40.2699 84.5625 40.371 84.5889L40.371 83.0552C40.1996 83.042 39.8041 83.0288 39.5799 83.0288C38.4022 83.0288 37.3827 83.6924 37.0223 84.6636L36.9213 84.6636L36.9213 83.1826L35.4623 83.1826L35.4623 93ZM45.972 93.2065C47.9671 93.2065 49.4217 92.209 49.8831 90.7236L48.4241 90.3149C48.0418 91.3389 47.1541 91.8486 45.972 91.8486C44.201 91.8486 42.9793 90.7061 42.909 88.6011L50.0369 88.6011L50.0369 87.9639C50.0369 84.3076 47.8616 83.0552 45.8182 83.0552C43.1595 83.0552 41.3929 85.1514 41.3929 88.166C41.3929 91.1851 43.1331 93.2065 45.972 93.2065ZM42.909 87.3003C43.0101 85.771 44.0911 84.4087 45.8182 84.4087C47.4529 84.4087 48.5032 85.6348 48.5032 87.3003L42.909 87.3003ZM59.2938 85.3799C58.8192 83.9868 57.7601 83.0552 55.8133 83.0552C53.7435 83.0552 52.2098 84.2285 52.2098 85.894C52.2098 87.2476 53.014 88.1528 54.8202 88.5747L56.4549 88.9614C57.4437 89.1899 57.9139 89.6646 57.9139 90.3413C57.9139 91.1851 57.0174 91.875 55.6112 91.875C54.3763 91.875 53.6029 91.3433 53.3348 90.2886L51.9022 90.6489C52.2538 92.3145 53.6293 93.2065 55.6376 93.2065C57.9183 93.2065 59.4696 91.9585 59.4696 90.2622C59.4696 88.8955 58.6171 88.0342 56.8636 87.6035L55.4046 87.2476C54.2445 86.9575 53.7171 86.5708 53.7171 85.8149C53.7171 84.9712 54.6136 84.356 55.8133 84.356C57.1317 84.356 57.6766 85.0854 57.9359 85.7622L59.2938 85.3799ZM68.7029 85.3799C68.2283 83.9868 67.1692 83.0552 65.2224 83.0552C63.1526 83.0552 61.6189 84.2285 61.6189 85.894C61.6189 87.2476 62.4231 88.1528 64.2293 88.5747L65.864 88.9614C66.8528 89.1899 67.323 89.6646 67.323 90.3413C67.323 91.1851 66.4265 91.875 65.0203 91.875C63.7854 91.875 63.012 91.3433 62.7439 90.2886L61.3113 90.6489C61.6629 92.3145 63.0383 93.2065 65.0466 93.2065C67.3274 93.2065 68.8787 91.9585 68.8787 90.2622C68.8787 88.8955 68.0261 88.0342 66.2727 87.6035L64.8137 87.2476C63.6536 86.9575 63.1262 86.5708 63.1262 85.8149C63.1262 84.9712 64.0227 84.356 65.2224 84.356C66.5408 84.356 67.0857 85.0854 67.345 85.7622L68.7029 85.3799Z" fill="#4B5563" fill-opacity="1.000000" fill-rule="evenodd"/>
	</g>
</svg>
