<svg width="90.000000" height="100.000000" viewBox="0 0 90 100" fill="none" xmlns="http://www.w3.org/2000/svg" xmlns:xlink="http://www.w3.org/1999/xlink">
	<desc>
			Created with Pixso.
	</desc>
	<defs>
		<clipPath id="clip316_272">
			<rect id="icon-typescript" width="64.000000" height="64.000000" transform="translate(13.000000 0.000000)" fill="white" fill-opacity="0"/>
		</clipPath>
		<clipPath id="clip316_271">
			<rect id="Tech" width="90.000000" height="100.000000" fill="white" fill-opacity="0"/>
		</clipPath>
	</defs>
	<g clip-path="url(#clip316_271)">
		<rect id="icon-typescript" width="64.000000" height="64.000000" transform="translate(13.000000 0.000000)" fill="#FFFFFF" fill-opacity="0"/>
		<g clip-path="url(#clip316_272)">
			<path id="Vector" d="M16 0L74 0C75.6567 0 77 1.34314 77 3L77 61C77 62.6569 75.6567 64 74 64L16 64C14.3433 64 13 62.6569 13 61L13 3C13 1.34314 14.3433 0 16 0Z" fill="#3178C6" fill-opacity="1.000000" fill-rule="evenodd"/>
			<path id="Vector" d="M50.1311 49.734L50.1311 56.7469C51.2673 57.3311 52.6111 57.7695 54.1624 58.0615C55.7136 58.354 57.3486 58.5 59.0676 58.5C60.7427 58.5 62.334 58.3395 63.8416 58.0179C65.3496 57.6965 66.6709 57.167 67.8076 56.429C68.9436 55.691 69.843 54.7271 70.5061 53.536C71.1685 52.3455 71.5 50.8735 71.5 49.1204C71.5 47.8492 71.3105 46.7354 70.9319 45.7783C70.553 44.8214 70.0071 43.9703 69.293 43.2252C68.5796 42.4801 67.7234 41.8116 66.7261 41.22C65.728 40.6283 64.603 40.0695 63.3501 39.5435C62.4324 39.1637 61.6094 38.7948 60.8811 38.4368C60.1528 38.0789 59.5337 37.7136 59.0239 37.3411C58.5142 36.9685 58.1208 36.574 57.844 36.1576C57.5671 35.7412 57.429 35.27 57.429 34.7441C57.429 34.262 57.5527 33.8273 57.8003 33.4402C58.0479 33.053 58.3975 32.7206 58.8491 32.443C59.3005 32.1654 59.8542 31.95 60.5098 31.7965C61.165 31.6431 61.8936 31.5664 62.6946 31.5664C63.2776 31.5664 63.8926 31.6102 64.541 31.6979C65.189 31.7855 65.8411 31.9207 66.4966 32.1034C67.1521 32.286 67.7891 32.516 68.4084 32.7937C69.0276 33.0713 69.5991 33.3927 70.1235 33.7579L70.1235 27.2053C69.0601 26.7963 67.8984 26.493 66.6384 26.2959C65.3784 26.0986 63.9331 26 62.3013 26C60.6409 26 59.0676 26.179 57.5818 26.5369C56.0959 26.8949 54.7888 27.4537 53.6599 28.2134C52.531 28.9731 51.6387 29.941 50.9832 31.1172C50.3276 32.2932 50 33.6995 50 35.3358C50 37.425 50.6008 39.2074 51.8025 40.6831C53.0044 42.1587 54.8289 43.4078 57.2759 44.4305C58.2373 44.825 59.1331 45.2122 59.9634 45.592C60.7937 45.9719 61.511 46.3663 62.1157 46.7754C62.7202 47.1846 63.197 47.6301 63.5464 48.1123C63.8965 48.5944 64.071 49.1422 64.071 49.7559C64.071 50.209 63.9619 50.629 63.7434 51.016C63.5249 51.403 63.1936 51.739 62.7493 52.024C62.3049 52.309 61.7515 52.532 61.0886 52.6925C60.4258 52.853 59.6501 52.9335 58.7617 52.9335C57.2468 52.9335 55.7463 52.667 54.2607 52.1335C52.7749 51.6005 51.3984 50.8005 50.1311 49.734ZM38.3513 32.2772L47.5 32.2772L47.5 26.5L22 26.5L22 32.2772L31.104 32.2772L31.104 58L38.3513 58L38.3513 32.2772Z" fill="#FFFFFF" fill-opacity="1.000000" fill-rule="evenodd"/>
		</g>
		<path id="Typescript" d="M0.870117 81.3149L4.98779 81.3149L4.98779 93L6.56982 93L6.56982 81.3149L10.6875 81.3149L10.6875 79.9087L0.870117 79.9087L0.870117 81.3149ZM12.7829 96.6826C14.1452 96.6826 15.1032 95.9575 15.6745 94.4326L19.8405 83.1826L18.2057 83.1826L15.4943 91.0049L15.3932 91.0049L12.6818 83.1826L11.0471 83.1826L14.6769 93.0527L14.3957 93.8174C13.8464 95.3159 13.1696 95.4565 12.0666 95.1753L11.6843 96.5024C11.8381 96.5815 12.2731 96.6826 12.7829 96.6826ZM21.8344 96.6826L23.3418 96.6826L23.3418 91.4927L23.4736 91.4927C23.8032 92.0288 24.4448 93.2065 26.3344 93.2065C28.791 93.2065 30.5048 91.2378 30.5048 88.1177C30.5048 85.0239 28.791 83.0552 26.3081 83.0552C24.392 83.0552 23.8032 84.2285 23.4736 84.7427L23.2934 84.7427L23.2934 83.1826L21.8344 83.1826L21.8344 96.6826ZM23.3198 88.0913C23.3198 85.894 24.291 84.4087 26.1323 84.4087C28.0483 84.4087 28.9931 86.0215 28.9931 88.0913C28.9931 90.1875 28.0219 91.8486 26.1323 91.8486C24.3173 91.8486 23.3198 90.3149 23.3198 88.0913ZM36.9209 93.2065C38.916 93.2065 40.3706 92.209 40.832 90.7236L39.373 90.3149C38.9907 91.3389 38.103 91.8486 36.9209 91.8486C35.1499 91.8486 33.9282 90.7061 33.8579 88.6011L40.9858 88.6011L40.9858 87.9639C40.9858 84.3076 38.8105 83.0552 36.767 83.0552C34.1084 83.0552 32.3418 85.1514 32.3418 88.166C32.3418 91.1851 34.082 93.2065 36.9209 93.2065ZM33.8579 87.3003C33.9589 85.771 35.04 84.4087 36.767 84.4087C38.4018 84.4087 39.4521 85.6348 39.4521 87.3003L33.8579 87.3003ZM50.2427 85.3799C49.7681 83.9868 48.709 83.0552 46.7622 83.0552C44.6924 83.0552 43.1587 84.2285 43.1587 85.894C43.1587 87.2476 43.9629 88.1528 45.769 88.5747L47.4038 88.9614C48.3926 89.1899 48.8628 89.6646 48.8628 90.3413C48.8628 91.1851 47.9663 91.875 46.5601 91.875C45.3252 91.875 44.5518 91.3433 44.2837 90.2886L42.8511 90.6489C43.2026 92.3145 44.5781 93.2065 46.5864 93.2065C48.8672 93.2065 50.4185 91.9585 50.4185 90.2622C50.4185 88.8955 49.5659 88.0342 47.8125 87.6035L46.3535 87.2476C45.1934 86.9575 44.666 86.5708 44.666 85.8149C44.666 84.9712 45.5625 84.356 46.7622 84.356C48.0806 84.356 48.6255 85.0854 48.8848 85.7622L50.2427 85.3799ZM56.6855 93.2065C58.8564 93.2065 60.289 91.875 60.5439 90.1348L59.0365 90.1348C58.7553 91.2114 57.8588 91.8486 56.6855 91.8486C54.8969 91.8486 53.7455 90.3677 53.7455 88.0913C53.7455 85.8677 54.9189 84.4087 56.6855 84.4087C58.0126 84.4087 58.808 85.2261 59.0365 86.1226L60.5439 86.1226C60.289 84.2812 58.7289 83.0552 56.6591 83.0552C54.0004 83.0552 52.2338 85.1514 52.2338 88.144C52.2338 91.084 53.9213 93.2065 56.6855 93.2065ZM62.7435 93L64.2508 93L64.2508 86.7861C64.2508 85.459 65.3011 84.4878 66.7337 84.4878C67.1337 84.4878 67.5511 84.5625 67.6522 84.5889L67.6522 83.0552C67.4808 83.042 67.0853 83.0288 66.8612 83.0288C65.6835 83.0288 64.6639 83.6924 64.3036 84.6636L64.2025 84.6636L64.2025 83.1826L62.7435 83.1826L62.7435 93ZM69.4424 93L70.9497 93L70.9497 83.1826L69.4424 83.1826L69.4424 93ZM70.2114 81.5435C70.8003 81.5435 71.2837 81.0864 71.2837 80.5239C71.2837 79.9614 70.8003 79.5 70.2114 79.5C69.6226 79.5 69.1348 79.9614 69.1348 80.5239C69.1348 81.0864 69.6226 81.5435 70.2114 81.5435ZM73.7123 96.6826L75.2196 96.6826L75.2196 91.4927L75.3514 91.4927C75.681 92.0288 76.3226 93.2065 78.2123 93.2065C80.6688 93.2065 82.3827 91.2378 82.3827 88.1177C82.3827 85.0239 80.6688 83.0552 78.1859 83.0552C76.2699 83.0552 75.681 84.2285 75.3514 84.7427L75.1713 84.7427L75.1713 83.1826L73.7123 83.1826L73.7123 96.6826ZM75.1976 88.0913C75.1976 85.894 76.1688 84.4087 78.0101 84.4087C79.9261 84.4087 80.871 86.0215 80.871 88.0913C80.871 90.1875 79.8998 91.8486 78.0101 91.8486C76.1952 91.8486 75.1976 90.3149 75.1976 88.0913ZM88.9525 83.1826L86.8563 83.1826L86.8563 80.8315L85.3446 80.8315L85.3446 83.1826L83.8636 83.1826L83.8636 84.4614L85.3446 84.4614L85.3446 90.5962C85.3446 92.3101 86.7289 93.1274 88.0077 93.1274C88.5702 93.1274 88.9261 93.0264 89.1327 92.9473L88.8251 91.5938C88.6976 91.6201 88.4911 91.6685 88.1571 91.6685C87.4935 91.6685 86.8563 91.4663 86.8563 90.1875L86.8563 84.4614L88.9525 84.4614L88.9525 83.1826Z" fill="#4B5563" fill-opacity="1.000000" fill-rule="evenodd"/>
	</g>
</svg>
