<svg width="66.064453" height="100.000000" viewBox="0 0 66.0645 100" fill="none" xmlns="http://www.w3.org/2000/svg" xmlns:xlink="http://www.w3.org/1999/xlink">
	<desc>
			Created with Pixso.
	</desc>
	<defs>
		<clipPath id="clip316_304">
			<rect id="icon-nest" width="66.064514" height="64.000000" fill="white" fill-opacity="0"/>
		</clipPath>
		<clipPath id="clip316_303">
			<rect id="Tech" width="66.064514" height="100.000000" fill="white" fill-opacity="0"/>
		</clipPath>
	</defs>
	<g clip-path="url(#clip316_303)">
		<rect id="icon-nest" width="66.064514" height="64.000000" fill="#FFFFFF" fill-opacity="0"/>
		<g clip-path="url(#clip316_304)">
			<path id="Vector" d="M38.2876 1.06177C37.8357 1.06177 37.4163 1.15881 37.0291 1.28833C37.8518 1.8385 38.3037 2.56665 38.5295 3.39185C38.5457 3.50513 38.5779 3.58606 38.594 3.69922C38.6104 3.79639 38.6265 3.89343 38.6265 3.99048C38.6909 5.41443 38.2551 5.59241 37.9487 6.43384C37.4807 7.51794 37.6099 8.68298 38.1746 9.62146C38.2229 9.73474 38.2876 9.86426 38.3682 9.97754C37.7551 5.88367 41.1597 5.2688 41.7888 3.99048C41.8372 2.87402 40.9175 2.12976 40.1914 1.61194C39.4976 1.19116 38.8684 1.06177 38.2876 1.06177ZM43.4185 1.98413C43.354 2.3562 43.4023 2.25916 43.3862 2.45337C43.3701 2.58276 43.3701 2.74463 43.354 2.87402C43.3218 3.00354 43.2893 3.13293 43.241 3.26233C43.2087 3.39185 43.1604 3.52124 43.1118 3.65076C43.0474 3.78015 42.999 3.89343 42.9346 4.02283C42.886 4.08765 42.8538 4.15234 42.8054 4.21704C42.7732 4.26562 42.7407 4.31409 42.7085 4.36267C42.6279 4.47595 42.5471 4.58923 42.4666 4.68628C42.3696 4.78345 42.2891 4.89661 42.176 4.97754L42.176 4.99377C42.0793 5.07471 41.9824 5.17175 41.8696 5.25269C41.5308 5.5116 41.1436 5.70569 40.7886 5.94849C40.6755 6.0293 40.5625 6.09412 40.4658 6.19116C40.3528 6.27209 40.2561 6.35291 40.1592 6.45007C40.0464 6.54712 39.9656 6.64429 39.8689 6.75745C39.7881 6.85461 39.6914 6.9679 39.6267 7.08105C39.5461 7.19434 39.4653 7.30762 39.4009 7.4209C39.3364 7.55042 39.2878 7.66357 39.2234 7.79309C39.175 7.92249 39.1265 8.03577 39.0942 8.16528C39.0459 8.31091 39.0137 8.44031 38.9814 8.5697C38.9653 8.63452 38.9651 8.71533 38.9492 8.78015C38.9329 8.84485 38.9329 8.90955 38.917 8.97424C38.917 9.10376 38.9006 9.24939 38.9006 9.37878C38.9006 9.47595 38.9006 9.573 38.917 9.67004C38.917 9.79956 38.9331 9.92896 38.9653 10.0746C38.9814 10.204 39.0137 10.3335 39.0459 10.4629C39.0945 10.5924 39.1267 10.7218 39.175 10.8513C39.2073 10.9321 39.2556 11.0131 39.2881 11.0778L35.5769 9.6377C34.9478 9.45972 34.3345 9.29785 33.7053 9.15222C33.3665 9.07141 33.0276 8.99048 32.6887 8.90955C31.7207 8.71533 30.7363 8.56982 29.7522 8.47266C29.72 8.47266 29.7039 8.45642 29.6714 8.45642C28.7034 8.35938 27.7515 8.31079 26.7834 8.31079C26.0735 8.31079 25.3635 8.34314 24.6697 8.39172C23.6853 8.45654 22.7012 8.58594 21.717 8.74768C21.4749 8.78003 21.2329 8.82861 20.991 8.8772C20.4907 8.97424 20.0066 9.08752 19.5388 9.20081C19.2966 9.2655 19.0547 9.3302 18.8125 9.39502C18.5706 9.49207 18.3447 9.60535 18.1189 9.70239C17.9414 9.78333 17.7639 9.86426 17.5864 9.94507C17.5542 9.9613 17.5217 9.9613 17.5056 9.97742C17.3442 10.0583 17.1992 10.123 17.054 10.204C17.0056 10.2202 16.9731 10.2363 16.9409 10.2526C16.7634 10.3335 16.5859 10.4305 16.4407 10.5115C16.3279 10.5599 16.2148 10.6248 16.1182 10.6732C16.0696 10.7056 16.0051 10.738 15.9729 10.7542C15.8276 10.8351 15.6824 10.9159 15.5535 10.9968C15.4082 11.0778 15.2791 11.1587 15.166 11.2396C15.0532 11.3204 14.9402 11.3853 14.8435 11.4661C14.8271 11.4823 14.811 11.4823 14.7949 11.4984C14.6982 11.5632 14.5852 11.644 14.4885 11.725C14.4885 11.725 14.4722 11.7412 14.4563 11.7573C14.3755 11.822 14.2949 11.8867 14.2141 11.9515C14.1819 11.9677 14.1497 12 14.1174 12.0162C14.0366 12.0809 13.9561 12.1619 13.8752 12.2266C13.8591 12.2589 13.8269 12.2751 13.8108 12.2914C13.7139 12.3884 13.6172 12.4694 13.5203 12.5664C13.5042 12.5664 13.5042 12.5826 13.488 12.5988C13.3914 12.6797 13.2944 12.7767 13.1978 12.8738C13.1814 12.89 13.1814 12.9061 13.1655 12.9061C13.0847 12.9871 13.0042 13.068 12.9233 13.165C12.8911 13.1974 12.8428 13.2299 12.8105 13.2621C12.7297 13.3593 12.6331 13.4563 12.5361 13.5535C12.52 13.5857 12.4878 13.6019 12.4717 13.6343C12.3425 13.7638 12.2295 13.8932 12.1006 14.0227C12.0842 14.0388 12.0681 14.0549 12.052 14.0712C11.7939 14.3463 11.5195 14.6213 11.2292 14.864C10.9387 15.1229 10.6321 15.3657 10.3257 15.576C10.0029 15.8026 9.69629 15.9967 9.35742 16.1909C9.03491 16.3689 8.69604 16.5308 8.34106 16.6764C8.0022 16.822 7.64722 16.9514 7.29224 17.0647C6.6145 17.2103 5.92065 17.4854 5.32373 17.5339C5.19458 17.5339 5.04956 17.5663 4.92041 17.5825C4.77515 17.6147 4.646 17.6472 4.51709 17.6796C4.38794 17.7281 4.25879 17.7766 4.12988 17.8252C4.00073 17.8738 3.87158 17.9385 3.74243 18.0032C3.62964 18.0841 3.50049 18.1488 3.38745 18.2297C3.27466 18.3105 3.16162 18.4077 3.06494 18.5048C2.9519 18.5857 2.83887 18.699 2.74219 18.796C2.64526 18.9093 2.54858 19.0063 2.46777 19.1196C2.38721 19.2491 2.29028 19.3624 2.22583 19.4918C2.14526 19.6051 2.06445 19.7345 2 19.864C1.9353 20.0096 1.87085 20.139 1.82251 20.2847C1.77417 20.4142 1.72559 20.5598 1.67725 20.7054C1.64502 20.8348 1.61279 20.9642 1.59668 21.0938C1.59668 21.11 1.58032 21.1261 1.58032 21.1422C1.5481 21.288 1.5481 21.4821 1.53198 21.5792C1.51587 21.6924 1.49976 21.7896 1.49976 21.9028C1.49976 21.9675 1.49976 22.0485 1.51587 22.1132C1.53198 22.2264 1.5481 22.3235 1.58057 22.4205C1.61279 22.5177 1.64502 22.6147 1.69336 22.7118L1.69336 22.728C1.74194 22.8251 1.8064 22.9222 1.87085 23.0193C1.93555 23.1163 2 23.2135 2.08057 23.3105C2.16138 23.3915 2.25806 23.4885 2.35498 23.5695C2.45166 23.6665 2.54858 23.7474 2.66162 23.8284C3.04883 24.1681 3.14551 24.2814 3.64575 24.5403C3.72632 24.5889 3.80713 24.6212 3.90381 24.6698C3.92017 24.6698 3.93628 24.6859 3.95239 24.6859C3.95239 24.7183 3.95239 24.7345 3.96851 24.7668C3.98462 24.8964 4.01685 25.0258 4.04907 25.1553C4.0813 25.3008 4.12988 25.4303 4.17822 25.5436C4.22656 25.6406 4.25903 25.7377 4.30737 25.8348C4.32349 25.8672 4.3396 25.8995 4.35571 25.9158C4.42041 26.0452 4.48486 26.1584 4.54932 26.2717C4.63013 26.385 4.71069 26.4982 4.79126 26.6115C4.87207 26.7086 4.96875 26.8219 5.06567 26.9189C5.1626 27.016 5.25928 27.0969 5.37231 27.194C5.37231 27.194 5.38843 27.2102 5.40454 27.2102C5.50122 27.2911 5.59814 27.3721 5.69482 27.4368C5.80786 27.5177 5.9209 27.5824 6.0498 27.6471C6.16284 27.7119 6.29199 27.7766 6.4209 27.8251C6.51782 27.8737 6.63086 27.906 6.74365 27.9384C6.75977 27.9546 6.77588 27.9546 6.80835 27.9707C6.8728 27.9869 6.95337 28.0031 7.01807 28.0193C6.96973 28.8931 6.95337 29.7183 7.08252 30.0095C7.22778 30.3331 7.93774 29.3461 8.64771 28.2134C8.55078 29.33 8.48633 30.6406 8.64771 31.0289C8.8252 31.4335 9.79321 30.1714 10.6323 28.7798C22.072 26.1261 32.5115 34.0548 33.6086 45.252C33.3989 43.5044 31.2529 42.5336 30.2686 42.7764C29.7847 43.9736 28.9617 45.5109 27.6387 46.4656C27.7515 45.3976 27.7031 44.2974 27.4773 43.2294C27.1223 44.718 26.4285 46.1096 25.4766 47.307C23.9436 47.4203 22.4109 46.6759 21.604 45.5594C21.5396 45.5109 21.5234 45.4138 21.4751 45.3491C21.4265 45.2358 21.3782 45.1226 21.3459 45.0093C21.2976 44.896 21.2654 44.7827 21.249 44.6694C21.2329 44.5562 21.2329 44.443 21.2329 44.3135C21.2329 44.2325 21.2329 44.1517 21.2329 44.0708C21.249 43.9575 21.2815 43.8442 21.3137 43.731C21.3459 43.6177 21.3782 43.5044 21.4265 43.3912C21.4912 43.278 21.5396 43.1647 21.6201 43.0514C21.8945 42.2747 21.8945 41.6437 21.3943 41.2715C21.2976 41.2068 21.2007 41.1582 21.0876 41.1096C21.0232 41.0935 20.9426 41.0612 20.8779 41.0449C20.8296 41.0287 20.7974 41.0126 20.749 40.9963C20.636 40.964 20.5229 40.9316 20.4102 40.9154C20.2971 40.8832 20.1841 40.8669 20.0713 40.8669C19.9583 40.8507 19.8291 40.8346 19.7163 40.8346C19.6355 40.8346 19.5549 40.8508 19.4744 40.8508C19.3452 40.8508 19.2322 40.8671 19.1194 40.8993C19.0063 40.9155 18.8933 40.9316 18.7805 40.9641C18.6675 40.9965 18.5544 41.0288 18.4417 41.0774C18.3286 41.1259 18.2319 41.1744 18.1189 41.223C18.0222 41.2715 17.9253 41.3362 17.8123 41.3848C14.053 43.8442 16.2957 49.6047 18.8611 51.2714C17.8931 51.4493 16.9087 51.6597 16.6345 51.87C16.6184 51.8862 16.6023 51.9023 16.6023 51.9023C17.2961 52.3231 18.0222 52.6791 18.7805 52.9865C19.8132 53.3263 20.9104 53.6338 21.3943 53.7632L21.3943 53.7794C22.7336 54.0544 24.0889 54.1516 25.4604 54.0707C32.6082 53.5691 38.4653 48.1161 39.53 40.9318C39.5625 41.0774 39.5947 41.2068 39.627 41.3524C39.6753 41.6437 39.74 41.9512 39.7722 42.2585L39.7722 42.2748C39.8044 42.4204 39.8206 42.566 39.8367 42.6954L39.8367 42.7603C39.8528 42.9059 39.8689 43.0515 39.8689 43.1809C39.885 43.3589 39.9011 43.5369 39.9011 43.715L39.9011 43.9738C39.9011 44.0547 39.9175 44.1517 39.9175 44.2327C39.9175 44.3298 39.9011 44.4269 39.9011 44.5239L39.9011 44.7505C39.9011 44.8638 39.885 44.9608 39.885 45.0741C39.885 45.1388 39.885 45.2036 39.8689 45.2844C39.8689 45.3977 39.8528 45.511 39.8528 45.6404C39.8364 45.689 39.8364 45.7375 39.8364 45.7861C39.8203 45.9155 39.8042 46.0288 39.7881 46.1582C39.7881 46.2068 39.7881 46.2554 39.772 46.3038C39.7559 46.4657 39.7236 46.6113 39.7075 46.7731L39.7075 46.7893L39.7075 46.8055C39.6753 46.9512 39.6428 47.1129 39.6106 47.2585L39.6106 47.3071C39.5784 47.4528 39.5461 47.5984 39.5139 47.744C39.5139 47.7603 39.4976 47.7926 39.4976 47.8087C39.4653 47.9545 39.4331 48.1001 39.3848 48.2457L39.3848 48.2942C39.3362 48.4561 39.2878 48.6017 39.2556 48.7473C39.2395 48.7634 39.2395 48.7797 39.2395 48.7797C39.1912 48.9414 39.1426 49.1033 39.0942 49.265C39.0298 49.4269 38.9812 49.5725 38.9167 49.7343C38.8523 49.8961 38.8037 50.0579 38.7393 50.2035C38.6748 50.3654 38.6101 50.511 38.5457 50.6727L38.5295 50.6727C38.4648 50.8184 38.4004 50.9802 38.3198 51.1259C38.3035 51.1744 38.2874 51.2068 38.2712 51.2391C38.2551 51.2554 38.2551 51.2715 38.239 51.2877C37.1902 53.4073 35.6414 55.2682 33.7051 56.7245C33.5759 56.8054 33.447 56.9025 33.3179 56.9995C33.2856 57.0319 33.2373 57.0481 33.2048 57.0804C33.092 57.1614 32.979 57.2423 32.8499 57.3231L32.8984 57.4203L32.9146 57.4203C33.1404 57.3879 33.3662 57.3555 33.5923 57.3231L33.6084 57.3231C34.0278 57.2584 34.4473 57.1775 34.8669 57.0967C34.9797 57.0804 35.1089 57.0481 35.2219 57.0157C35.3025 56.9995 35.3672 56.9834 35.4478 56.9672C35.5608 56.9509 35.6736 56.9186 35.7866 56.9025C35.8833 56.8701 35.9802 56.8539 36.0771 56.8215C37.6904 56.4332 39.2556 55.8992 40.7561 55.2682C38.1907 58.7794 34.7539 61.6111 30.7363 63.4719C32.5918 63.3424 34.4473 63.035 36.2383 62.5172C42.7407 60.5917 48.2104 56.2067 51.4861 50.3005C50.8245 54.0385 49.3401 57.5983 47.1458 60.705C48.7107 59.6693 50.1467 58.4719 51.4536 57.1128C55.0679 53.3264 57.4397 48.5208 58.2466 43.359C58.7952 45.9155 58.9565 48.5531 58.7144 51.1582C70.364 34.8639 59.6826 17.9711 55.2131 13.5212C55.197 13.4889 55.1809 13.4727 55.1809 13.4403C55.1648 13.4565 55.1648 13.4565 55.1648 13.4727C55.1648 13.4565 55.1648 13.4565 55.1487 13.4403C55.1487 13.6345 55.1323 13.8287 55.1165 14.0228C55.0679 14.395 55.0195 14.751 54.9551 15.1069C54.8743 15.463 54.7776 15.819 54.6807 16.1749C54.5679 16.5148 54.4387 16.8707 54.2935 17.2106C54.1482 17.5342 53.9868 17.8739 53.8093 18.1975C53.6318 18.505 53.4382 18.8286 53.2285 19.1199C53.0188 19.4274 52.793 19.7185 52.5669 19.9937C52.325 20.2849 52.0669 20.5438 51.8086 20.8027C51.6472 20.9484 51.5022 21.0778 51.3408 21.2072C51.2117 21.3204 51.0986 21.4176 50.9697 21.5309C50.6792 21.7573 50.3887 21.9678 50.0662 22.1619C49.7595 22.3561 49.4368 22.5502 49.114 22.712C48.7754 22.8739 48.4365 23.0195 48.0977 23.1652C47.7588 23.2946 47.4038 23.4078 47.0488 23.5049C46.6938 23.6021 46.3228 23.6829 45.9678 23.7477C45.5967 23.8124 45.2256 23.8447 44.8706 23.8771C44.6125 23.8933 44.3542 23.9094 44.0962 23.9094C43.7251 23.9094 43.354 23.8771 42.999 23.8446C42.6279 23.8124 42.2568 23.7638 41.9019 23.6829C41.5308 23.618 41.1758 23.521 40.8208 23.4077L40.8044 23.4077C41.1594 23.3755 41.5144 23.343 41.8694 23.2783C42.2405 23.2136 42.5955 23.1327 42.9504 23.0356C43.3054 22.9385 43.6604 22.8252 43.9993 22.6958C44.3542 22.5664 44.6931 22.4045 45.0159 22.2427C45.3547 22.0809 45.6611 21.903 45.9839 21.7087C46.2905 21.4984 46.5969 21.2881 46.8875 21.0615C47.178 20.835 47.4521 20.5923 47.7104 20.3334C47.9846 20.0907 48.2266 19.8156 48.4688 19.5405C48.7107 19.2493 48.9365 18.958 49.1465 18.6667C49.1787 18.6182 49.2109 18.5535 49.2432 18.5049C49.4045 18.2461 49.5659 17.9872 49.7112 17.7283C49.8887 17.4047 50.0498 17.0811 50.1951 16.7412C50.3403 16.4014 50.4695 16.0616 50.5823 15.7057C50.6953 15.3658 50.7759 15.0099 50.8567 14.6539C50.9211 14.2817 50.9858 13.9258 51.0181 13.5697C51.0503 13.1976 51.0825 12.8254 51.0825 12.4695C51.0825 12.2106 51.0664 11.9517 51.0503 11.6927C51.0181 11.3206 50.9697 10.9646 50.9214 10.6086C50.8567 10.2365 50.7761 9.88049 50.6792 9.52454C50.5664 9.18469 50.4534 8.82874 50.3242 8.48889C50.1951 8.14917 50.0339 7.80933 49.8726 7.48572C49.6951 7.16211 49.5176 6.8385 49.324 6.53101C49.1143 6.22363 48.9043 5.93237 48.6785 5.64111C48.4365 5.36597 48.1943 5.09094 47.9363 4.8158C47.8071 4.6864 47.6619 4.54077 47.5168 4.41138C46.7908 3.84497 46.0322 3.31104 45.2739 2.82556C45.1611 2.76086 45.0642 2.71228 44.9514 2.66382C44.4189 2.32397 43.9187 2.14587 43.4185 1.98413Z" fill="#E0234E" fill-opacity="1.000000" fill-rule="evenodd"/>
		</g>
		<path id="Nest.js" d="M15.4985 79.9087L13.9385 79.9087L13.9385 90.2139L13.811 90.2139L6.65234 79.9087L5.11865 79.9087L5.11865 93L6.70068 93L6.70068 82.7212L6.83252 82.7212L13.9648 93L15.4985 93L15.4985 79.9087ZM22.5809 93.2065C24.576 93.2065 26.0306 92.209 26.4921 90.7236L25.0331 90.3149C24.6507 91.3389 23.7631 91.8486 22.5809 91.8486C20.8099 91.8486 19.5882 90.7061 19.5179 88.6011L26.6459 88.6011L26.6459 87.9639C26.6459 84.3076 24.4706 83.0552 22.4271 83.0552C19.7684 83.0552 18.0018 85.1514 18.0018 88.166C18.0018 91.1851 19.7421 93.2065 22.5809 93.2065ZM19.5179 87.3003C19.619 85.771 20.7001 84.4087 22.4271 84.4087C24.0619 84.4087 25.1122 85.6348 25.1122 87.3003L19.5179 87.3003ZM35.9027 85.3799C35.4281 83.9868 34.369 83.0552 32.4223 83.0552C30.3524 83.0552 28.8188 84.2285 28.8188 85.894C28.8188 87.2476 29.623 88.1528 31.4291 88.5747L33.0639 88.9614C34.0526 89.1899 34.5229 89.6646 34.5229 90.3413C34.5229 91.1851 33.6264 91.875 32.2201 91.875C30.9853 91.875 30.2118 91.3433 29.9438 90.2886L28.5111 90.6489C28.8627 92.3145 30.2382 93.2065 32.2465 93.2065C34.5273 93.2065 36.0785 91.9585 36.0785 90.2622C36.0785 88.8955 35.226 88.0342 33.4726 87.6035L32.0136 87.2476C30.8534 86.9575 30.3261 86.5708 30.3261 85.8149C30.3261 84.9712 31.2226 84.356 32.4223 84.356C33.7406 84.356 34.2856 85.0854 34.5448 85.7622L35.9027 85.3799ZM42.6268 83.1826L40.5306 83.1826L40.5306 80.8315L39.0189 80.8315L39.0189 83.1826L37.5379 83.1826L37.5379 84.4614L39.0189 84.4614L39.0189 90.5962C39.0189 92.3101 40.4031 93.1274 41.6819 93.1274C42.2444 93.1274 42.6004 93.0264 42.8069 92.9473L42.4993 91.5938C42.3719 91.6201 42.1653 91.6685 41.8314 91.6685C41.1678 91.6685 40.5306 91.4663 40.5306 90.1875L40.5306 84.4614L42.6268 84.4614L42.6268 83.1826ZM45.9994 93.1011C46.6322 93.1011 47.1507 92.5825 47.1507 91.9497C47.1507 91.3169 46.6322 90.8027 45.9994 90.8027C45.3666 90.8027 44.8524 91.3169 44.8524 91.9497C44.8524 92.5825 45.3666 93.1011 45.9994 93.1011ZM49.861 83.1826L49.861 93.7163C49.861 94.7139 49.4523 95.2764 48.5338 95.2764L48.2526 95.2764L48.2526 96.6826L48.5558 96.6826C50.4498 96.6826 51.3683 95.5312 51.3683 93.7163L51.3683 83.1826L49.861 83.1826ZM50.6036 81.5435C51.1925 81.5435 51.6759 81.0864 51.6759 80.5239C51.6759 79.9614 51.1925 79.5 50.6036 79.5C50.0148 79.5 49.5314 79.9614 49.5314 80.5239C49.5314 81.0864 50.0148 81.5435 50.6036 81.5435ZM61.0874 85.3799C60.6128 83.9868 59.5537 83.0552 57.6069 83.0552C55.5371 83.0552 54.0034 84.2285 54.0034 85.894C54.0034 87.2476 54.8076 88.1528 56.6138 88.5747L58.2485 88.9614C59.2373 89.1899 59.7075 89.6646 59.7075 90.3413C59.7075 91.1851 58.811 91.875 57.4048 91.875C56.1699 91.875 55.3965 91.3433 55.1284 90.2886L53.6958 90.6489C54.0474 92.3145 55.4229 93.2065 57.4312 93.2065C59.7119 93.2065 61.2632 91.9585 61.2632 90.2622C61.2632 88.8955 60.4106 88.0342 58.6572 87.6035L57.1982 87.2476C56.0381 86.9575 55.5107 86.5708 55.5107 85.8149C55.5107 84.9712 56.4072 84.356 57.6069 84.356C58.9253 84.356 59.4702 85.0854 59.7295 85.7622L61.0874 85.3799Z" fill="#4B5563" fill-opacity="1.000000" fill-rule="evenodd"/>
	</g>
</svg>
