<svg width="86.000000" height="100.000000" viewBox="0 0 86 100" fill="none" xmlns="http://www.w3.org/2000/svg" xmlns:xlink="http://www.w3.org/1999/xlink">
	<desc>
			Created with Pixso.
	</desc>
	<defs>
		<clipPath id="clip316_300">
			<rect id="icon-express" width="64.000000" height="64.000000" transform="translate(11.000000 0.000000)" fill="white" fill-opacity="0"/>
		</clipPath>
		<clipPath id="clip316_299">
			<rect id="Tech" width="86.000000" height="100.000000" fill="white" fill-opacity="0"/>
		</clipPath>
	</defs>
	<g clip-path="url(#clip316_299)">
		<rect id="icon-express" width="64.000000" height="64.000000" transform="translate(11.000000 0.000000)" fill="#FFFFFF" fill-opacity="0"/>
		<g clip-path="url(#clip316_300)">
			<path id="Vector" d="M75 49.59C72.6721 50.182 71.2319 49.616 69.9399 47.676L60.752 34.964L59.4241 33.204L48.6941 47.718C47.468 49.464 46.1819 50.224 43.894 49.606L57.634 31.162L44.842 14.5021C47.042 14.074 48.562 14.292 49.9121 16.262L59.4419 29.132L69.042 16.332C70.272 14.5861 71.594 13.922 73.802 14.566L68.842 21.142L62.1221 29.892C61.322 30.892 61.4319 31.576 62.168 32.542L75 49.59ZM11.0161 30.854L12.1399 25.326C15.2 14.386 27.74 9.83997 36.3879 16.6C41.4419 20.576 42.698 26.2001 42.448 32.5L13.96 32.5C13.532 43.84 21.6941 50.684 32.1001 47.192C35.75 45.9661 37.8999 43.108 38.9761 39.532C39.522 37.74 40.426 37.46 42.1101 37.972C41.25 42.444 39.3101 46.1801 35.21 48.5181C29.084 52.0181 20.3401 50.886 15.74 46.022C13 43.2001 11.8679 39.624 11.3601 35.8C11.28 35.168 11.1201 34.566 11 33.96C11.0107 32.9253 11.0161 31.8906 11.0161 30.856L11.0161 30.854ZM14.012 30.094L39.7561 30.094C39.5879 21.894 34.4819 16.0701 27.5039 16.02C19.844 15.96 14.344 21.646 14.012 30.094Z" fill="#000000" fill-opacity="1.000000" fill-rule="nonzero"/>
		</g>
		<path id="Express.js" d="M1.58643 93L9.58887 93L9.58887 91.5938L3.16846 91.5938L3.16846 87.1465L9.07471 87.1465L9.07471 85.7402L3.16846 85.7402L3.16846 81.3149L9.48779 81.3149L9.48779 79.9087L1.58643 79.9087L1.58643 93ZM13.2691 83.1826L11.5332 83.1826L14.649 88.0913L11.5332 93L13.2691 93L15.6202 89.1899L17.9756 93L19.7115 93L16.543 88.0913L19.7115 83.1826L17.9756 83.1826L15.6202 87.1948L13.2691 83.1826ZM21.86 96.6826L23.3673 96.6826L23.3673 91.4927L23.4992 91.4927C23.8287 92.0288 24.4703 93.2065 26.36 93.2065C28.8165 93.2065 30.5304 91.2378 30.5304 88.1177C30.5304 85.0239 28.8165 83.0552 26.3336 83.0552C24.4176 83.0552 23.8287 84.2285 23.4992 84.7427L23.319 84.7427L23.319 83.1826L21.86 83.1826L21.86 96.6826ZM23.3453 88.0913C23.3453 85.894 24.3165 84.4087 26.1578 84.4087C28.0739 84.4087 29.0187 86.0215 29.0187 88.0913C29.0187 90.1875 28.0475 91.8486 26.1578 91.8486C24.3429 91.8486 23.3453 90.3149 23.3453 88.0913ZM32.8287 93L34.3361 93L34.3361 86.7861C34.3361 85.459 35.3864 84.4878 36.819 84.4878C37.2189 84.4878 37.6364 84.5625 37.7374 84.5889L37.7374 83.0552C37.5661 83.042 37.1705 83.0288 36.9464 83.0288C35.7687 83.0288 34.7492 83.6924 34.3888 84.6636L34.2877 84.6636L34.2877 83.1826L32.8287 83.1826L32.8287 93ZM43.3385 93.2065C45.3336 93.2065 46.7882 92.209 47.2496 90.7236L45.7906 90.3149C45.4083 91.3389 44.5206 91.8486 43.3385 91.8486C41.5675 91.8486 40.3458 90.7061 40.2755 88.6011L47.4034 88.6011L47.4034 87.9639C47.4034 84.3076 45.2281 83.0552 43.1847 83.0552C40.526 83.0552 38.7594 85.1514 38.7594 88.166C38.7594 91.1851 40.4996 93.2065 43.3385 93.2065ZM40.2755 87.3003C40.3766 85.771 41.4576 84.4087 43.1847 84.4087C44.8194 84.4087 45.8697 85.6348 45.8697 87.3003L40.2755 87.3003ZM56.6603 85.3799C56.1857 83.9868 55.1266 83.0552 53.1798 83.0552C51.11 83.0552 49.5763 84.2285 49.5763 85.894C49.5763 87.2476 50.3805 88.1528 52.1867 88.5747L53.8214 88.9614C54.8102 89.1899 55.2804 89.6646 55.2804 90.3413C55.2804 91.1851 54.3839 91.875 52.9777 91.875C51.7428 91.875 50.9694 91.3433 50.7013 90.2886L49.2687 90.6489C49.6202 92.3145 50.9957 93.2065 53.004 93.2065C55.2848 93.2065 56.8361 91.9585 56.8361 90.2622C56.8361 88.8955 55.9835 88.0342 54.2301 87.6035L52.7711 87.2476C51.611 86.9575 51.0836 86.5708 51.0836 85.8149C51.0836 84.9712 51.9801 84.356 53.1798 84.356C54.4982 84.356 55.0431 85.0854 55.3024 85.7622L56.6603 85.3799ZM66.0694 85.3799C65.5948 83.9868 64.5357 83.0552 62.5889 83.0552C60.5191 83.0552 58.9854 84.2285 58.9854 85.894C58.9854 87.2476 59.7896 88.1528 61.5957 88.5747L63.2305 88.9614C64.2193 89.1899 64.6895 89.6646 64.6895 90.3413C64.6895 91.1851 63.793 91.875 62.3868 91.875C61.1519 91.875 60.3785 91.3433 60.1104 90.2886L58.6778 90.6489C59.0293 92.3145 60.4048 93.2065 62.4131 93.2065C64.6939 93.2065 66.2452 91.9585 66.2452 90.2622C66.2452 88.8955 65.3926 88.0342 63.6392 87.6035L62.1802 87.2476C61.0201 86.9575 60.4927 86.5708 60.4927 85.8149C60.4927 84.9712 61.3892 84.356 62.5889 84.356C63.9073 84.356 64.4522 85.0854 64.7115 85.7622L66.0694 85.3799ZM69.6206 93.1011C70.2534 93.1011 70.7719 92.5825 70.7719 91.9497C70.7719 91.3169 70.2534 90.8027 69.6206 90.8027C68.9877 90.8027 68.4736 91.3169 68.4736 91.9497C68.4736 92.5825 68.9877 93.1011 69.6206 93.1011ZM73.4822 83.1826L73.4822 93.7163C73.4822 94.7139 73.0735 95.2764 72.155 95.2764L71.8738 95.2764L71.8738 96.6826L72.177 96.6826C74.071 96.6826 74.9895 95.5312 74.9895 93.7163L74.9895 83.1826L73.4822 83.1826ZM74.2248 81.5435C74.8137 81.5435 75.2971 81.0864 75.2971 80.5239C75.2971 79.9614 74.8137 79.5 74.2248 79.5C73.636 79.5 73.1526 79.9614 73.1526 80.5239C73.1526 81.0864 73.636 81.5435 74.2248 81.5435ZM84.7086 85.3799C84.234 83.9868 83.1749 83.0552 81.2281 83.0552C79.1583 83.0552 77.6246 84.2285 77.6246 85.894C77.6246 87.2476 78.4288 88.1528 80.235 88.5747L81.8697 88.9614C82.8585 89.1899 83.3287 89.6646 83.3287 90.3413C83.3287 91.1851 82.4322 91.875 81.026 91.875C79.7911 91.875 79.0177 91.3433 78.7496 90.2886L77.317 90.6489C77.6685 92.3145 79.044 93.2065 81.0523 93.2065C83.3331 93.2065 84.8844 91.9585 84.8844 90.2622C84.8844 88.8955 84.0318 88.0342 82.2784 87.6035L80.8194 87.2476C79.6593 86.9575 79.1319 86.5708 79.1319 85.8149C79.1319 84.9712 80.0284 84.356 81.2281 84.356C82.5465 84.356 83.0914 85.0854 83.3507 85.7622L84.7086 85.3799Z" fill="#4B5563" fill-opacity="1.000000" fill-rule="evenodd"/>
	</g>
</svg>
