<svg width="64.000000" height="100.000000" viewBox="0 0 64 100" fill="none" xmlns="http://www.w3.org/2000/svg" xmlns:xlink="http://www.w3.org/1999/xlink">
	<desc>
			Created with Pixso.
	</desc>
	<defs>
		<clipPath id="clip316_285">
			<rect id="icon-nextjs" width="64.000000" height="64.000000" fill="white" fill-opacity="0"/>
		</clipPath>
		<clipPath id="clip316_284">
			<rect id="Tech" width="64.000000" height="100.000000" fill="white" fill-opacity="0"/>
		</clipPath>
		<linearGradient id="paint_linear_316_291_0" x1="38.755497" y1="41.422176" x2="51.377731" y2="57.066616" gradientUnits="userSpaceOnUse">
			<stop stop-color="#FFFFFF"/>
			<stop offset="1.000000" stop-color="#FFFFFF" stop-opacity="0.000000"/>
		</linearGradient>
		<linearGradient id="paint_linear_316_292_0" x1="43.022251" y1="19.199961" x2="42.951145" y2="37.999966" gradientUnits="userSpaceOnUse">
			<stop stop-color="#FFFFFF"/>
			<stop offset="1.000000" stop-color="#FFFFFF" stop-opacity="0.000000"/>
		</linearGradient>
	</defs>
	<g clip-path="url(#clip316_284)">
		<rect id="icon-nextjs" width="64.000000" height="64.000000" fill="#FFFFFF" fill-opacity="0"/>
		<g clip-path="url(#clip316_285)">
			<mask id="mask316_287" mask-type="alpha" maskUnits="userSpaceOnUse" x="0.000000" y="0.000000" width="64.000000" height="64.000000">
				<path id="Vector" d="M64 32C64 49.6731 49.6731 64 32 64C14.3269 64 0 49.6731 0 32C0 14.3269 14.3269 0 32 0C49.6731 0 64 14.3269 64 32Z" fill="#000000" fill-opacity="1.000000" fill-rule="evenodd"/>
			</mask>
			<g mask="url(#mask316_287)">
				<path id="Vector" d="M32 62.9333C49.084 62.9333 62.9333 49.084 62.9333 32C62.9333 14.916 49.084 1.06665 32 1.06665C14.916 1.06665 1.06665 14.916 1.06665 32C1.06665 49.084 14.916 62.9333 32 62.9333Z" fill="#000000" fill-opacity="1.000000" fill-rule="nonzero"/>
				<path id="Vector" d="M32 62.9333C14.916 62.9333 1.06665 49.084 1.06665 32C1.06665 14.916 14.916 1.06665 32 1.06665C49.084 1.06665 62.9333 14.916 62.9333 32C62.9333 49.084 49.084 62.9333 32 62.9333Z" stroke="#FFFFFF" stroke-opacity="1.000000" stroke-width="6.000000"/>
				<path id="Vector" d="M53.1584 56.0071L24.5837 19.2L19.2 19.2L19.2 44.7893L23.5071 44.7893L23.5071 24.6697L49.7773 58.6115C50.9629 57.8182 52.092 56.9475 53.1584 56.0071Z" fill="url(#paint_linear_316_291_0)" fill-opacity="1.000000" fill-rule="nonzero"/>
				<path id="Vector" d="M40.8889 19.2L45.1555 19.2L45.1555 44.7999L40.8889 44.7999L40.8889 19.2Z" fill="url(#paint_linear_316_292_0)" fill-opacity="1.000000" fill-rule="evenodd"/>
			</g>
		</g>
		<path id="Next.js" d="M14.4663 79.9087L12.9062 79.9087L12.9062 90.2139L12.7788 90.2139L5.62012 79.9087L4.08643 79.9087L4.08643 93L5.66846 93L5.66846 82.7212L5.80029 82.7212L12.9326 93L14.4663 93L14.4663 79.9087ZM21.5487 93.2065C23.5438 93.2065 24.9984 92.209 25.4598 90.7236L24.0008 90.3149C23.6185 91.3389 22.7308 91.8486 21.5487 91.8486C19.7777 91.8486 18.556 90.7061 18.4857 88.6011L25.6136 88.6011L25.6136 87.9639C25.6136 84.3076 23.4383 83.0552 21.3949 83.0552C18.7362 83.0552 16.9696 85.1514 16.9696 88.166C16.9696 91.1851 18.7098 93.2065 21.5487 93.2065ZM18.4857 87.3003C18.5868 85.771 19.6678 84.4087 21.3949 84.4087C23.0297 84.4087 24.0799 85.6348 24.0799 87.3003L18.4857 87.3003ZM28.7833 83.1826L27.0475 83.1826L30.1632 88.0913L27.0475 93L28.7833 93L31.1344 89.1899L33.4898 93L35.2257 93L32.0572 88.0913L35.2257 83.1826L33.4898 83.1826L31.1344 87.1948L28.7833 83.1826ZM41.6457 83.1826L39.5495 83.1826L39.5495 80.8315L38.0378 80.8315L38.0378 83.1826L36.5568 83.1826L36.5568 84.4614L38.0378 84.4614L38.0378 90.5962C38.0378 92.3101 39.4221 93.1274 40.7009 93.1274C41.2634 93.1274 41.6193 93.0264 41.8259 92.9473L41.5182 91.5938C41.3908 91.6201 41.1843 91.6685 40.8503 91.6685C40.1867 91.6685 39.5495 91.4663 39.5495 90.1875L39.5495 84.4614L41.6457 84.4614L41.6457 83.1826ZM45.0183 93.1011C45.6511 93.1011 46.1697 92.5825 46.1697 91.9497C46.1697 91.3169 45.6511 90.8027 45.0183 90.8027C44.3855 90.8027 43.8713 91.3169 43.8713 91.9497C43.8713 92.5825 44.3855 93.1011 45.0183 93.1011ZM48.8799 83.1826L48.8799 93.7163C48.8799 94.7139 48.4712 95.2764 47.5527 95.2764L47.2715 95.2764L47.2715 96.6826L47.5747 96.6826C49.4688 96.6826 50.3872 95.5312 50.3872 93.7163L50.3872 83.1826L48.8799 83.1826ZM49.6226 81.5435C50.2114 81.5435 50.6948 81.0864 50.6948 80.5239C50.6948 79.9614 50.2114 79.5 49.6226 79.5C49.0337 79.5 48.5503 79.9614 48.5503 80.5239C48.5503 81.0864 49.0337 81.5435 49.6226 81.5435ZM60.1063 85.3799C59.6317 83.9868 58.5726 83.0552 56.6258 83.0552C54.556 83.0552 53.0223 84.2285 53.0223 85.894C53.0223 87.2476 53.8265 88.1528 55.6327 88.5747L57.2674 88.9614C58.2562 89.1899 58.7264 89.6646 58.7264 90.3413C58.7264 91.1851 57.8299 91.875 56.4237 91.875C55.1888 91.875 54.4154 91.3433 54.1473 90.2886L52.7147 90.6489C53.0663 92.3145 54.4418 93.2065 56.4501 93.2065C58.7308 93.2065 60.2821 91.9585 60.2821 90.2622C60.2821 88.8955 59.4296 88.0342 57.6761 87.6035L56.2172 87.2476C55.057 86.9575 54.5297 86.5708 54.5297 85.8149C54.5297 84.9712 55.4261 84.356 56.6258 84.356C57.9442 84.356 58.4891 85.0854 58.7484 85.7622L60.1063 85.3799Z" fill="#4B5563" fill-opacity="1.000000" fill-rule="evenodd"/>
	</g>
</svg>
