<svg width="79.000000" height="100.000000" viewBox="0 0 79 100" fill="none" xmlns="http://www.w3.org/2000/svg" xmlns:xlink="http://www.w3.org/1999/xlink">
	<desc>
			Created with Pixso.
	</desc>
	<defs>
		<clipPath id="clip316_308">
			<rect id="icon-socket" width="64.000000" height="64.000000" transform="translate(7.500000 0.000000)" fill="white" fill-opacity="0"/>
		</clipPath>
		<clipPath id="clip316_307">
			<rect id="Tech" width="79.000000" height="100.000000" fill="white" fill-opacity="0"/>
		</clipPath>
	</defs>
	<g clip-path="url(#clip316_307)">
		<rect id="icon-socket" width="64.000000" height="64.000000" transform="translate(7.500000 0.000000)" fill="#FFFFFF" fill-opacity="0"/>
		<g clip-path="url(#clip316_308)">
			<path id="Vector" d="M71.4878 31.295C71.314 20.595 65.3479 10.177 56.1179 4.69104C48.8459 0.161987 39.6599 -1.05701 31.386 1.03296C18.9329 4.16797 9.00488 15.446 7.74292 28.2999C6.1748 40.4399 12.3149 53.066 22.8079 59.292C33.084 65.736 47.0608 65.475 57.1079 58.692C66.1648 52.814 71.782 42.092 71.4778 31.304L71.4878 31.295ZM41.2698 59.25C26.7268 60.687 12.6628 48.365 12.2698 33.778C11.1699 21.9349 18.9749 10.222 30.1218 6.30298C45.7539 0.032959 64.9558 11.615 66.5669 28.38C69.0928 43.444 56.553 58.78 41.2698 59.25ZM31.7 30.38L52.73 13.1799L41.366 30.423C38.1438 30.423 34.9219 30.424 31.7 30.38ZM37.6128 33.5599L47.2788 33.604L26.2488 50.847L37.6128 33.5599Z" fill="#010101" fill-opacity="1.000000" fill-rule="nonzero"/>
		</g>
		<path id="Socket.io" d="M8.74512 83.1826L10.2788 83.1826C10.2085 81.2051 8.38477 79.7285 5.85352 79.7285C3.34863 79.7285 1.37988 81.1875 1.37988 83.3848C1.37988 85.1514 2.65869 86.1973 4.70654 86.7861L6.31494 87.2476C7.69482 87.6299 8.92529 88.1177 8.92529 89.4185C8.92529 90.8511 7.54102 91.8003 5.72607 91.8003C4.16602 91.8003 2.78613 91.106 2.65869 89.625L1.02393 89.625C1.17773 91.7739 2.91357 93.2285 5.72607 93.2285C8.74512 93.2285 10.459 91.5674 10.459 89.4448C10.459 86.9927 8.12988 86.1973 6.77637 85.8413L5.44482 85.481C4.47363 85.2261 2.91357 84.7163 2.91357 83.3101C2.91357 82.0576 4.06494 81.1348 5.80518 81.1348C7.38721 81.1348 8.59131 81.8906 8.74512 83.1826ZM16.8502 93.2065C19.5089 93.2065 21.2975 91.1851 21.2975 88.144C21.2975 85.0723 19.5089 83.0552 16.8502 83.0552C14.1915 83.0552 12.3986 85.0723 12.3986 88.144C12.3986 91.1851 14.1915 93.2065 16.8502 93.2065ZM16.8502 91.8486C14.8287 91.8486 13.9103 90.1128 13.9103 88.144C13.9103 86.1753 14.8287 84.4087 16.8502 84.4087C18.8673 84.4087 19.7902 86.1753 19.7902 88.144C19.7902 90.1128 18.8673 91.8486 16.8502 91.8486ZM27.5889 93.2065C29.7598 93.2065 31.1924 91.875 31.4473 90.1348L29.9399 90.1348C29.6587 91.2114 28.7622 91.8486 27.5889 91.8486C25.8003 91.8486 24.6489 90.3677 24.6489 88.0913C24.6489 85.8677 25.8223 84.4087 27.5889 84.4087C28.916 84.4087 29.7114 85.2261 29.9399 86.1226L31.4473 86.1226C31.1924 84.2812 29.6323 83.0552 27.5625 83.0552C24.9038 83.0552 23.1372 85.1514 23.1372 88.144C23.1372 91.084 24.8247 93.2065 27.5889 93.2065ZM33.6469 93L35.1543 93L35.1543 89.3262L36.2089 88.3462L39.8872 93L41.8032 93L37.3471 87.375L41.4956 83.1826L39.6323 83.1826L35.3344 87.5552L35.1543 87.5552L35.1543 79.9087L33.6469 79.9087L33.6469 93ZM47.1481 93.2065C49.1432 93.2065 50.5978 92.209 51.0593 90.7236L49.6003 90.3149C49.2179 91.3389 48.3303 91.8486 47.1481 91.8486C45.3771 91.8486 44.1554 90.7061 44.0851 88.6011L51.2131 88.6011L51.2131 87.9639C51.2131 84.3076 49.0378 83.0552 46.9943 83.0552C44.3356 83.0552 42.569 85.1514 42.569 88.166C42.569 91.1851 44.3093 93.2065 47.1481 93.2065ZM44.0851 87.3003C44.1862 85.771 45.2673 84.4087 46.9943 84.4087C48.6291 84.4087 49.6794 85.6348 49.6794 87.3003L44.0851 87.3003ZM57.7849 83.1826L55.6887 83.1826L55.6887 80.8315L54.177 80.8315L54.177 83.1826L52.696 83.1826L52.696 84.4614L54.177 84.4614L54.177 90.5962C54.177 92.3101 55.5613 93.1274 56.8401 93.1274C57.4026 93.1274 57.7585 93.0264 57.9651 92.9473L57.6574 91.5938C57.53 91.6201 57.3235 91.6685 56.9895 91.6685C56.3259 91.6685 55.6887 91.4663 55.6887 90.1875L55.6887 84.4614L57.7849 84.4614L57.7849 83.1826ZM61.1575 93.1011C61.7903 93.1011 62.3089 92.5825 62.3089 91.9497C62.3089 91.3169 61.7903 90.8027 61.1575 90.8027C60.5247 90.8027 60.0105 91.3169 60.0105 91.9497C60.0105 92.5825 60.5247 93.1011 61.1575 93.1011ZM65.0191 93L66.5264 93L66.5264 83.1826L65.0191 83.1826L65.0191 93ZM65.7881 81.5435C66.377 81.5435 66.8604 81.0864 66.8604 80.5239C66.8604 79.9614 66.377 79.5 65.7881 79.5C65.1993 79.5 64.7115 79.9614 64.7115 80.5239C64.7115 81.0864 65.1993 81.5435 65.7881 81.5435ZM73.2792 93.2065C75.9379 93.2065 77.7265 91.1851 77.7265 88.144C77.7265 85.0723 75.9379 83.0552 73.2792 83.0552C70.6205 83.0552 68.8276 85.0723 68.8276 88.144C68.8276 91.1851 70.6205 93.2065 73.2792 93.2065ZM73.2792 91.8486C71.2577 91.8486 70.3393 90.1128 70.3393 88.144C70.3393 86.1753 71.2577 84.4087 73.2792 84.4087C75.2963 84.4087 76.2192 86.1753 76.2192 88.144C76.2192 90.1128 75.2963 91.8486 73.2792 91.8486Z" fill="#4B5563" fill-opacity="1.000000" fill-rule="evenodd"/>
	</g>
</svg>
