<svg width="104.727295" height="100.000000" viewBox="0 0 104.727 100" fill="none" xmlns="http://www.w3.org/2000/svg" xmlns:xlink="http://www.w3.org/1999/xlink">
	<desc>
			Created with Pixso.
	</desc>
	<defs>
		<clipPath id="clip316_324">
			<rect id="icon-tailwindcss" width="104.727272" height="64.000000" fill="white" fill-opacity="0"/>
		</clipPath>
		<clipPath id="clip316_323">
			<rect id="Tech" width="104.727272" height="100.000000" fill="white" fill-opacity="0"/>
		</clipPath>
	</defs>
	<g clip-path="url(#clip316_323)">
		<rect id="icon-tailwindcss" width="104.727272" height="64.000000" fill="#FFFFFF" fill-opacity="0"/>
		<g clip-path="url(#clip316_324)">
			<mask id="mask316_326" mask-type="alpha" maskUnits="userSpaceOnUse" x="0.000000" y="0.000000" width="104.727295" height="62.836426">
				<path id="Vector" d="M0 0L104.727 0L104.727 62.8364L0 62.8364L0 0Z" fill="#000000" fill-opacity="1.000000" fill-rule="nonzero"/>
			</mask>
			<g mask="url(#mask316_326)">
				<path id="Vector" d="M52.3635 0C38.3999 0 29.6726 6.98181 26.1819 20.9454C31.4182 13.9636 37.5273 11.3455 44.509 13.0909C48.4927 14.0858 51.3396 16.9774 54.4912 20.1755C59.6248 25.3867 65.5671 31.4182 78.5454 31.4182C92.509 31.4182 101.236 24.4364 104.727 10.4728C99.491 17.4546 93.3818 20.0728 86.3999 18.3273C82.4165 17.3324 79.5693 14.4407 76.418 11.2427C71.2844 6.03149 65.342 0 52.3635 0ZM26.1819 31.4182C12.2183 31.4182 3.49097 38.4 0 52.3636C5.23633 45.3818 11.3455 42.7637 18.3274 44.509C22.3108 45.506 25.1577 48.3956 28.3093 51.5938C33.4429 56.8048 39.3853 62.8364 52.3635 62.8364C66.3271 62.8364 75.0544 55.8545 78.5454 41.8909C73.3091 48.8727 67.2 51.491 60.2183 49.7455C56.2346 48.7505 53.3877 45.8589 50.2361 42.6609C45.1025 37.4497 39.1602 31.4182 26.1819 31.4182Z" fill="#38BDF8" fill-opacity="1.000000" fill-rule="evenodd"/>
			</g>
		</g>
		<path id="Tailwindcss" d="M3.73364 81.3149L7.85132 81.3149L7.85132 93L9.43335 93L9.43335 81.3149L13.551 81.3149L13.551 79.9087L3.73364 79.9087L3.73364 81.3149ZM17.3623 93.2285C19.0718 93.2285 19.9682 92.3101 20.2759 91.6685L20.3506 91.6685L20.3506 93L21.8623 93L21.8623 86.5312C21.8623 83.4111 19.4848 83.0552 18.228 83.0552C16.747 83.0552 15.0595 83.5649 14.2905 85.3535L15.7231 85.8677C16.0571 85.1514 16.8437 84.3823 18.2807 84.3823C19.6694 84.3823 20.3506 85.1206 20.3506 86.3774L20.3506 86.4302C20.3506 87.1597 19.6123 87.0938 17.8193 87.3223C16 87.5596 14.0093 87.9639 14.0093 90.2139C14.0093 92.1299 15.4946 93.2285 17.3623 93.2285ZM17.5908 91.875C16.3911 91.875 15.521 91.3389 15.521 90.2886C15.521 89.1372 16.5669 88.7812 17.7446 88.6274C18.3818 88.5527 20.0957 88.3726 20.3506 88.0649L20.3506 89.4448C20.3506 90.6753 19.3794 91.875 17.5908 91.875ZM24.6213 93L26.1286 93L26.1286 83.1826L24.6213 83.1826L24.6213 93ZM25.3903 81.5435C25.9792 81.5435 26.4626 81.0864 26.4626 80.5239C26.4626 79.9614 25.9792 79.5 25.3903 79.5C24.8014 79.5 24.3136 79.9614 24.3136 80.5239C24.3136 81.0864 24.8014 81.5435 25.3903 81.5435ZM30.3985 79.9087L28.8911 79.9087L28.8911 93L30.3985 93L30.3985 79.9087ZM35.3847 93L36.87 93L39.0189 85.459L39.1683 85.459L41.3173 93L42.8026 93L45.7909 83.1826L44.2089 83.1826L42.0863 90.6753L41.9808 90.6753L39.911 83.1826L38.3026 83.1826L36.2064 90.6973L36.101 90.6973L33.9784 83.1826L32.3964 83.1826L35.3847 93ZM47.786 93L49.2933 93L49.2933 83.1826L47.786 83.1826L47.786 93ZM48.5551 81.5435C49.1439 81.5435 49.6273 81.0864 49.6273 80.5239C49.6273 79.9614 49.1439 79.5 48.5551 79.5C47.9662 79.5 47.4784 79.9614 47.4784 80.5239C47.4784 81.0864 47.9662 81.5435 48.5551 81.5435ZM53.5632 87.0938C53.5632 85.3799 54.6267 84.4087 56.0725 84.4087C57.47 84.4087 58.3225 85.3228 58.3225 86.8652L58.3225 93L59.8298 93L59.8298 86.7598C59.8298 84.2549 58.4939 83.0552 56.5076 83.0552C55.0222 83.0552 54.1038 83.7188 53.6423 84.7163L53.5149 84.7163L53.5149 83.1826L52.0559 83.1826L52.0559 93L53.5632 93L53.5632 87.0938ZM66.299 93.2065C68.1886 93.2065 68.8302 92.0288 69.1598 91.4927L69.34 91.4927L69.34 93L70.799 93L70.799 79.9087L69.2917 79.9087L69.2917 84.7427L69.1598 84.7427C68.8302 84.2285 68.2414 83.0552 66.3253 83.0552C63.8424 83.0552 62.1286 85.0239 62.1286 88.1177C62.1286 91.2378 63.8424 93.2065 66.299 93.2065ZM66.5011 91.8486C64.6115 91.8486 63.6403 90.1875 63.6403 88.0913C63.6403 86.0215 64.5851 84.4087 66.5011 84.4087C68.3424 84.4087 69.3136 85.894 69.3136 88.0913C69.3136 90.3149 68.3161 91.8486 66.5011 91.8486ZM77.7535 93.2065C79.9244 93.2065 81.357 91.875 81.6119 90.1348L80.1046 90.1348C79.8234 91.2114 78.9269 91.8486 77.7535 91.8486C75.965 91.8486 74.8136 90.3677 74.8136 88.0913C74.8136 85.8677 75.9869 84.4087 77.7535 84.4087C79.0807 84.4087 79.8761 85.2261 80.1046 86.1226L81.6119 86.1226C81.357 84.2812 79.797 83.0552 77.7272 83.0552C75.0685 83.0552 73.3019 85.1514 73.3019 88.144C73.3019 91.084 74.9894 93.2065 77.7535 93.2065ZM90.7681 85.3799C90.2935 83.9868 89.2344 83.0552 87.2877 83.0552C85.2178 83.0552 83.6842 84.2285 83.6842 85.894C83.6842 87.2476 84.4883 88.1528 86.2945 88.5747L87.9293 88.9614C88.918 89.1899 89.3883 89.6646 89.3883 90.3413C89.3883 91.1851 88.4918 91.875 87.0855 91.875C85.8507 91.875 85.0772 91.3433 84.8092 90.2886L83.3765 90.6489C83.7281 92.3145 85.1036 93.2065 87.1119 93.2065C89.3926 93.2065 90.9439 91.9585 90.9439 90.2622C90.9439 88.8955 90.0914 88.0342 88.338 87.6035L86.879 87.2476C85.7188 86.9575 85.1915 86.5708 85.1915 85.8149C85.1915 84.9712 86.088 84.356 87.2877 84.356C88.606 84.356 89.1509 85.0854 89.4102 85.7622L90.7681 85.3799ZM100.177 85.3799C99.7026 83.9868 98.6435 83.0552 96.6968 83.0552C94.6269 83.0552 93.0932 84.2285 93.0932 85.894C93.0932 87.2476 93.8974 88.1528 95.7036 88.5747L97.3384 88.9614C98.3271 89.1899 98.7973 89.6646 98.7973 90.3413C98.7973 91.1851 97.9009 91.875 96.4946 91.875C95.2597 91.875 94.4863 91.3433 94.2182 90.2886L92.7856 90.6489C93.1372 92.3145 94.5127 93.2065 96.521 93.2065C98.8017 93.2065 100.353 91.9585 100.353 90.2622C100.353 88.8955 99.5005 88.0342 97.747 87.6035L96.2881 87.2476C95.1279 86.9575 94.6006 86.5708 94.6006 85.8149C94.6006 84.9712 95.497 84.356 96.6968 84.356C98.0151 84.356 98.56 85.0854 98.8193 85.7622L100.177 85.3799Z" fill="#4B5563" fill-opacity="1.000000" fill-rule="evenodd"/>
	</g>
</svg>
