<svg width="52.000000" height="100.000000" viewBox="0 0 52 100" fill="none" xmlns="http://www.w3.org/2000/svg" xmlns:xlink="http://www.w3.org/1999/xlink">
	<desc>
			Created with Pixso.
	</desc>
	<defs>
		<clipPath id="clip316_332">
			<rect id="icon-figma" width="42.666668" height="64.000000" transform="translate(4.666748 0.000000)" fill="white" fill-opacity="0"/>
		</clipPath>
		<clipPath id="clip316_331">
			<rect id="Tech" width="52.000000" height="100.000000" fill="white" fill-opacity="0"/>
		</clipPath>
	</defs>
	<g clip-path="url(#clip316_331)">
		<rect id="icon-figma" width="42.666668" height="64.000000" transform="translate(4.666748 0.000000)" fill="#FFFFFF" fill-opacity="0"/>
		<g clip-path="url(#clip316_332)">
			<path id="Vector" d="M26 31.9999C26 29.1709 27.1238 26.4579 29.1243 24.4574C31.1245 22.457 33.8376 21.3333 36.6667 21.3333C39.4956 21.3333 42.2087 22.457 44.2092 24.4574C46.2095 26.4579 47.3333 29.1709 47.3333 31.9999C47.3333 34.8289 46.2095 37.542 44.2092 39.5424C42.2087 41.5427 39.4956 42.6666 36.6667 42.6666C33.8376 42.6666 31.1245 41.5427 29.1243 39.5424C27.1238 37.542 26 34.8289 26 31.9999Z" fill="#1ABCFE" fill-opacity="1.000000" fill-rule="nonzero"/>
			<path id="Vector" d="M4.66675 53.3334C4.66675 50.5044 5.79053 47.7914 7.79102 45.7909C9.79126 43.7905 12.5044 42.6667 15.3335 42.6667L26 42.6667L26 53.3334C26 56.1624 24.8762 58.8755 22.876 60.8759C20.8755 62.8762 18.1624 64.0001 15.3335 64.0001C12.5044 64.0001 9.79126 62.8762 7.79102 60.8759C5.79053 58.8755 4.66675 56.1624 4.66675 53.3334Z" fill="#0ACF83" fill-opacity="1.000000" fill-rule="nonzero"/>
			<path id="Vector" d="M26 0L26 21.3334L36.6667 21.3334C39.4956 21.3334 42.2087 20.2095 44.2092 18.2091C46.2095 16.2087 47.3333 13.4956 47.3333 10.6666C47.3333 7.83765 46.2095 5.12463 44.2092 3.12415C42.2087 1.12378 39.4956 0 36.6667 0L26 0Z" fill="#FF7262" fill-opacity="1.000000" fill-rule="nonzero"/>
			<path id="Vector" d="M4.66675 10.6666C4.66675 13.4956 5.79053 16.2087 7.79102 18.2091C9.79126 20.2095 12.5044 21.3334 15.3335 21.3334L26 21.3334L26 0L15.3335 0C12.5044 0 9.79126 1.12378 7.79102 3.12415C5.79053 5.12463 4.66675 7.83765 4.66675 10.6666Z" fill="#F24E1E" fill-opacity="1.000000" fill-rule="nonzero"/>
			<path id="Vector" d="M4.66675 31.9999C4.66675 34.8289 5.79053 37.542 7.79102 39.5424C9.79126 41.5427 12.5044 42.6666 15.3335 42.6666L26 42.6666L26 21.3333L15.3335 21.3333C12.5044 21.3333 9.79126 22.457 7.79102 24.4574C5.79053 26.4579 4.66675 29.1709 4.66675 31.9999Z" fill="#A259FF" fill-opacity="1.000000" fill-rule="nonzero"/>
		</g>
		<path id="Figma" d="M1.58643 93L3.16846 93L3.16846 87.1465L8.84619 87.1465L8.84619 85.7402L3.16846 85.7402L3.16846 81.3149L9.43506 81.3149L9.43506 79.9087L1.58643 79.9087L1.58643 93ZM11.9395 93L13.4469 93L13.4469 83.1826L11.9395 83.1826L11.9395 93ZM12.7086 81.5435C13.2975 81.5435 13.7809 81.0864 13.7809 80.5239C13.7809 79.9614 13.2975 79.5 12.7086 79.5C12.1197 79.5 11.6319 79.9614 11.6319 80.5239C11.6319 81.0864 12.1197 81.5435 12.7086 81.5435ZM20.1733 96.8848C22.5244 96.8848 24.4184 95.8125 24.4184 93.2812L24.4184 83.1826L22.9594 83.1826L22.9594 84.7427L22.8056 84.7427C22.476 84.2285 21.8608 83.0552 19.9448 83.0552C17.4619 83.0552 15.748 85.0239 15.748 88.0386C15.748 91.106 17.541 92.8462 19.9184 92.8462C21.8344 92.8462 22.4497 91.7212 22.7793 91.1851L22.9111 91.1851L22.9111 93.1802C22.9111 94.8149 21.7597 95.5576 20.1733 95.5576C18.3891 95.5576 17.7651 94.6172 17.3608 94.0723L16.1611 94.916C16.7719 95.9487 17.9804 96.8848 20.1733 96.8848ZM20.1206 91.4927C18.2309 91.4927 17.2597 90.0601 17.2597 88.0122C17.2597 86.0215 18.2045 84.4087 20.1206 84.4087C21.9619 84.4087 22.9331 85.894 22.9331 88.0122C22.9331 90.1875 21.9355 91.4927 20.1206 91.4927ZM27.1782 93L28.6855 93L28.6855 86.8652C28.6855 85.4238 29.7358 84.4087 30.9135 84.4087C32.0561 84.4087 32.8559 85.1558 32.8559 86.2764L32.8559 93L34.3896 93L34.3896 86.606C34.3896 85.3403 35.1806 84.4087 36.5605 84.4087C37.6372 84.4087 38.5556 84.98 38.5556 86.4302L38.5556 93L40.0673 93L40.0673 86.4302C40.0673 84.123 38.8237 83.0552 37.0747 83.0552C35.6684 83.0552 34.6401 83.7012 34.1347 84.7163L34.0293 84.7163C33.5459 83.666 32.6889 83.0552 31.3969 83.0552C30.1181 83.0552 29.1733 83.666 28.7646 84.7163L28.6372 84.7163L28.6372 83.1826L27.1782 83.1826L27.1782 93ZM45.7175 93.2285C47.427 93.2285 48.3235 92.3101 48.6311 91.6685L48.7058 91.6685L48.7058 93L50.2175 93L50.2175 86.5312C50.2175 83.4111 47.8401 83.0552 46.5832 83.0552C45.1023 83.0552 43.4148 83.5649 42.6457 85.3535L44.0783 85.8677C44.4123 85.1514 45.199 84.3823 46.636 84.3823C48.0246 84.3823 48.7058 85.1206 48.7058 86.3774L48.7058 86.4302C48.7058 87.1597 47.9675 87.0938 46.1745 87.3223C44.3552 87.5596 42.3645 87.9639 42.3645 90.2139C42.3645 92.1299 43.8498 93.2285 45.7175 93.2285ZM45.946 91.875C44.7463 91.875 43.8762 91.3389 43.8762 90.2886C43.8762 89.1372 44.9221 88.7812 46.0998 88.6274C46.737 88.5527 48.4509 88.3726 48.7058 88.0649L48.7058 89.4448C48.7058 90.6753 47.7346 91.875 45.946 91.875Z" fill="#4B5563" fill-opacity="1.000000" fill-rule="evenodd"/>
	</g>
</svg>
