<svg width="88.000000" height="100.000000" viewBox="0 0 88 100" fill="none" xmlns="http://www.w3.org/2000/svg" xmlns:xlink="http://www.w3.org/1999/xlink">
	<desc>
			Created with Pixso.
	</desc>
	<defs>
		<clipPath id="clip316_266">
			<rect id="Tech" width="88.000000" height="100.000000" fill="white" fill-opacity="0"/>
		</clipPath>
	</defs>
	<g clip-path="url(#clip316_266)">
		<path id="Vector" d="M12 64L12 0L76 0L76 64L12 64Z" fill="#FFD600" fill-opacity="1.000000" fill-rule="nonzero"/>
		<path id="Vector" d="M53.8455 47.9058C55.0757 49.9041 56.4126 51.8187 59.2444 51.8187C61.623 51.8187 62.8711 50.6365 62.8711 49.0009C62.8711 47.0436 61.5806 46.3485 58.9636 45.2089L57.5288 44.5973C53.3884 42.8409 50.6348 40.64 50.6348 35.9911C50.6348 31.7067 53.9148 28.4463 59.04 28.4463C62.6897 28.4463 65.312 29.7102 67.2036 33.0205L62.7344 35.8773C61.7512 34.1208 60.688 33.4293 59.04 33.4293C57.3582 33.4293 56.2935 34.4907 56.2935 35.8773C56.2935 37.5911 57.3601 38.2844 59.8223 39.3458L61.2568 39.9574C66.137 42.0355 68.8889 44.1582 68.8889 48.9298C68.8889 54.0712 64.8284 56.8889 59.3779 56.8889C54.0461 56.8889 51.0188 54.2134 49.3333 50.9014L53.8455 47.9058ZM33.248 48.0515C34.1477 49.6622 35.5146 50.9014 37.481 50.9014C39.3618 50.9014 40.4446 50.1582 40.4446 47.2693L40.4446 28.4445L46.3699 28.4445L46.3699 48.1796C46.3699 54.1654 42.8977 56.8889 37.8276 56.8889C33.2463 56.8889 29.9397 53.7849 28.592 50.9014L33.248 48.0515Z" fill="#000001" fill-opacity="1.000000" fill-rule="nonzero"/>
		<path id="Javascript" d="M6.59619 79.9087L6.59619 89.269C6.59619 90.895 5.81836 91.7739 4.44727 91.7739C3.20361 91.7739 2.30273 91.0444 2.30273 89.9326L0.742676 89.9326C0.742676 91.9453 2.30273 93.1802 4.44727 93.1802C6.72363 93.1802 8.18262 91.7783 8.18262 89.269L8.18262 79.9087L6.59619 79.9087ZM14.0385 93.2285C15.748 93.2285 16.6445 92.3101 16.9521 91.6685L17.0268 91.6685L17.0268 93L18.5385 93L18.5385 86.5312C18.5385 83.4111 16.1611 83.0552 14.9043 83.0552C13.4233 83.0552 11.7358 83.5649 10.9668 85.3535L12.3994 85.8677C12.7334 85.1514 13.52 84.3823 14.957 84.3823C16.3457 84.3823 17.0268 85.1206 17.0268 86.3774L17.0268 86.4302C17.0268 87.1597 16.2885 87.0938 14.4956 87.3223C12.6762 87.5596 10.6855 87.9639 10.6855 90.2139C10.6855 92.1299 12.1709 93.2285 14.0385 93.2285ZM14.267 91.875C13.0673 91.875 12.1972 91.3389 12.1972 90.2886C12.1972 89.1372 13.2431 88.7812 14.4209 88.6274C15.0581 88.5527 16.7719 88.3726 17.0268 88.0649L17.0268 89.4448C17.0268 90.6753 16.0556 91.875 14.267 91.875ZM28.9683 83.1826L27.3336 83.1826L24.6222 91.0049L24.5211 91.0049L21.8097 83.1826L20.1749 83.1826L23.8048 93L25.3385 93L28.9683 83.1826ZM33.5471 93.2285C35.2565 93.2285 36.153 92.3101 36.4606 91.6685L36.5353 91.6685L36.5353 93L38.0471 93L38.0471 86.5312C38.0471 83.4111 35.6696 83.0552 34.4128 83.0552C32.9318 83.0552 31.2443 83.5649 30.4753 85.3535L31.9079 85.8677C32.2419 85.1514 33.0285 84.3823 34.4655 84.3823C35.8542 84.3823 36.5353 85.1206 36.5353 86.3774L36.5353 86.4302C36.5353 87.1597 35.7971 87.0938 34.0041 87.3223C32.1847 87.5596 30.194 87.9639 30.194 90.2139C30.194 92.1299 31.6794 93.2285 33.5471 93.2285ZM33.7756 91.875C32.5759 91.875 31.7057 91.3389 31.7057 90.2886C31.7057 89.1372 32.7516 88.7812 33.9294 88.6274C34.5666 88.5527 36.2804 88.3726 36.5353 88.0649L36.5353 89.4448C36.5353 90.6753 35.5641 91.875 33.7756 91.875ZM47.7626 85.3799C47.2879 83.9868 46.2289 83.0552 44.2821 83.0552C42.2123 83.0552 40.6786 84.2285 40.6786 85.894C40.6786 87.2476 41.4828 88.1528 43.2889 88.5747L44.9237 88.9614C45.9125 89.1899 46.3827 89.6646 46.3827 90.3413C46.3827 91.1851 45.4862 91.875 44.0799 91.875C42.8451 91.875 42.0716 91.3433 41.8036 90.2886L40.371 90.6489C40.7225 92.3145 42.098 93.2065 44.1063 93.2065C46.3871 93.2065 47.9383 91.9585 47.9383 90.2622C47.9383 88.8955 47.0858 88.0342 45.3324 87.6035L43.8734 87.2476C42.7132 86.9575 42.1859 86.5708 42.1859 85.8149C42.1859 84.9712 43.0824 84.356 44.2821 84.356C45.6004 84.356 46.1454 85.0854 46.4046 85.7622L47.7626 85.3799ZM54.2053 93.2065C56.3762 93.2065 57.8089 91.875 58.0637 90.1348L56.5564 90.1348C56.2752 91.2114 55.3787 91.8486 54.2053 91.8486C52.4168 91.8486 51.2654 90.3677 51.2654 88.0913C51.2654 85.8677 52.4387 84.4087 54.2053 84.4087C55.5325 84.4087 56.3279 85.2261 56.5564 86.1226L58.0637 86.1226C57.8089 84.2812 56.2488 83.0552 54.179 83.0552C51.5203 83.0552 49.7537 85.1514 49.7537 88.144C49.7537 91.084 51.4412 93.2065 54.2053 93.2065ZM60.2634 93L61.7707 93L61.7707 86.7861C61.7707 85.459 62.821 84.4878 64.2536 84.4878C64.6535 84.4878 65.071 84.5625 65.1721 84.5889L65.1721 83.0552C65.0007 83.042 64.6052 83.0288 64.3811 83.0288C63.2033 83.0288 62.1838 83.6924 61.8235 84.6636L61.7224 84.6636L61.7224 83.1826L60.2634 83.1826L60.2634 93ZM66.9623 93L68.4696 93L68.4696 83.1826L66.9623 83.1826L66.9623 93ZM67.7313 81.5435C68.3202 81.5435 68.8036 81.0864 68.8036 80.5239C68.8036 79.9614 68.3202 79.5 67.7313 79.5C67.1424 79.5 66.6546 79.9614 66.6546 80.5239C66.6546 81.0864 67.1424 81.5435 67.7313 81.5435ZM71.2322 96.6826L72.7395 96.6826L72.7395 91.4927L72.8713 91.4927C73.2009 92.0288 73.8425 93.2065 75.7322 93.2065C78.1887 93.2065 79.9026 91.2378 79.9026 88.1177C79.9026 85.0239 78.1887 83.0552 75.7058 83.0552C73.7898 83.0552 73.2009 84.2285 72.8713 84.7427L72.6911 84.7427L72.6911 83.1826L71.2322 83.1826L71.2322 96.6826ZM72.7175 88.0913C72.7175 85.894 73.6887 84.4087 75.53 84.4087C77.446 84.4087 78.3908 86.0215 78.3908 88.0913C78.3908 90.1875 77.4197 91.8486 75.53 91.8486C73.7151 91.8486 72.7175 90.3149 72.7175 88.0913ZM86.4724 83.1826L84.3762 83.1826L84.3762 80.8315L82.8645 80.8315L82.8645 83.1826L81.3835 83.1826L81.3835 84.4614L82.8645 84.4614L82.8645 90.5962C82.8645 92.3101 84.2488 93.1274 85.5276 93.1274C86.0901 93.1274 86.446 93.0264 86.6526 92.9473L86.3449 91.5938C86.2175 91.6201 86.011 91.6685 85.677 91.6685C85.0134 91.6685 84.3762 91.4663 84.3762 90.1875L84.3762 84.4614L86.4724 84.4614L86.4724 83.1826Z" fill="#4B5563" fill-opacity="1.000000" fill-rule="evenodd"/>
	</g>
</svg>
