<svg width="64.000000" height="100.000000" viewBox="0 0 64 100" fill="none" xmlns="http://www.w3.org/2000/svg" xmlns:xlink="http://www.w3.org/1999/xlink">
	<desc>
			Created with Pixso.
	</desc>
	<defs>
		<clipPath id="clip316_354">
			<rect id="icon-git" width="64.000000" height="64.000000" fill="white" fill-opacity="0"/>
		</clipPath>
		<clipPath id="clip316_353">
			<rect id="Tech" width="64.000000" height="100.000000" fill="white" fill-opacity="0"/>
		</clipPath>
	</defs>
	<g clip-path="url(#clip316_353)">
		<rect id="icon-git" width="64.000000" height="64.000000" fill="#FFFFFF" fill-opacity="0"/>
		<g clip-path="url(#clip316_354)">
			<path id="Vector" d="M56.2666 29.4668L34.5332 7.7334C33.8665 7.06677 32.9331 6.66675 31.9998 6.66675C31.0664 6.66675 30.1331 7.06677 29.4666 7.7334L24.7998 12.4L30.2666 17.8667C30.7998 17.6001 31.3333 17.4668 31.9998 17.4668C34.2666 17.4668 35.9998 19.2001 35.9998 21.4668C35.9998 22.1334 35.8665 22.6667 35.5999 23.2001L40.9331 28.5334C41.4666 28.2667 41.9998 28.1334 42.6665 28.1334C44.9331 28.1334 46.6665 29.8667 46.6665 32.1334C46.6665 34.4 44.9331 36.1334 42.6665 36.1334C40.3999 36.1334 38.6665 34.4 38.6665 32.1334C38.6665 31.4668 38.7998 30.9335 39.0664 30.4L33.7332 25.0668C33.5999 25.0668 33.4666 25.2001 33.3333 25.2001L33.3333 39.0668C34.9331 39.6001 35.9998 41.0668 35.9998 42.8C35.9998 45.0668 34.2666 46.8 31.9998 46.8C29.7332 46.8 27.9998 45.0668 27.9998 42.8C27.9998 41.0668 29.0664 39.6001 30.6665 39.0668L30.6665 25.0668C29.0664 24.5334 27.9998 23.0668 27.9998 21.3334C27.9998 20.6667 28.1331 20.1334 28.3999 19.6001L22.9331 14.1334L7.73315 29.4668C7.06641 30.1334 6.6665 31.0668 6.6665 32.0001C6.6665 32.9335 7.06641 33.8667 7.73315 34.5334L29.4666 56.2667C30.1331 56.9335 31.0664 57.3334 31.9998 57.3334C32.9331 57.3334 33.8665 56.9335 34.5332 56.2667L56.2666 34.5334C56.9331 33.8667 57.3333 32.9335 57.3333 32.0001C57.3333 31.0668 56.9331 30.1334 56.2666 29.4668Z" fill="#F4511E" fill-opacity="1.000000" fill-rule="nonzero"/>
		</g>
		<path id="Git" d="M30.0337 84L31.6685 84C31.1851 81.4688 29.0625 79.7285 26.3027 79.7285C22.9453 79.7285 20.5723 82.3125 20.5723 86.4565C20.5723 90.5962 22.9277 93.1802 26.4038 93.1802C29.5239 93.1802 31.7476 91.1016 31.7476 87.8628L31.7476 86.4565L26.7598 86.4565L26.7598 87.8628L30.2139 87.8628C30.1699 90.2139 28.623 91.6948 26.4038 91.6948C23.9736 91.6948 22.106 89.8535 22.106 86.4565C22.106 83.0552 23.9736 81.2139 26.3027 81.2139C28.1924 81.2139 29.48 82.2817 30.0337 84ZM34.8657 93L36.373 93L36.373 83.1826L34.8657 83.1826L34.8657 93ZM35.6347 81.5435C36.2236 81.5435 36.707 81.0864 36.707 80.5239C36.707 79.9614 36.2236 79.5 35.6347 79.5C35.0459 79.5 34.5581 79.9614 34.5581 80.5239C34.5581 81.0864 35.0459 81.5435 35.6347 81.5435ZM43.4071 83.1826L41.3109 83.1826L41.3109 80.8315L39.7991 80.8315L39.7991 83.1826L38.3182 83.1826L38.3182 84.4614L39.7991 84.4614L39.7991 90.5962C39.7991 92.3101 41.1834 93.1274 42.4622 93.1274C43.0247 93.1274 43.3807 93.0264 43.5872 92.9473L43.2796 91.5938C43.1522 91.6201 42.9456 91.6685 42.6116 91.6685C41.9481 91.6685 41.3109 91.4663 41.3109 90.1875L41.3109 84.4614L43.4071 84.4614L43.4071 83.1826Z" fill="#4B5563" fill-opacity="1.000000" fill-rule="evenodd"/>
	</g>
</svg>
