<svg width="89.000000" height="100.000000" viewBox="0 0 89 100" fill="none" xmlns="http://www.w3.org/2000/svg" xmlns:xlink="http://www.w3.org/1999/xlink">
	<desc>
			Created with Pixso.
	</desc>
	<defs>
		<clipPath id="clip316_349">
			<rect id="icon-storybook" width="64.000000" height="64.000000" transform="translate(12.500000 0.000000)" fill="white" fill-opacity="0"/>
		</clipPath>
		<clipPath id="clip316_348">
			<rect id="Tech" width="89.000000" height="100.000000" fill="white" fill-opacity="0"/>
		</clipPath>
	</defs>
	<g clip-path="url(#clip316_348)">
		<rect id="icon-storybook" width="64.000000" height="64.000000" transform="translate(12.500000 0.000000)" fill="#FFFFFF" fill-opacity="0"/>
		<g clip-path="url(#clip316_349)">
			<path id="Vector" d="M23.7627 55.604L22.0269 9.37598C21.9722 7.84924 23.1455 6.55725 24.6694 6.46399L55.48 4.53723L57.8335 5.33325L60.8933 4.19861L63.9814 4.00525C65.532 3.90662 66.8694 5.08398 66.9695 6.63464C66.9734 6.69458 66.9749 6.75598 66.9749 6.81726L66.9749 57.1866C66.9734 58.7427 65.7107 60.0026 64.1548 60.0013C64.1133 60.0013 64.072 60 64.032 59.9987L26.4507 58.3107C24.9868 58.2452 23.8188 57.0693 23.7627 55.604Z" fill="#FF4081" fill-opacity="1.000000" fill-rule="evenodd"/>
			<path id="Vector" d="M60.8906 4.19873L55.4814 4.53479L55.2188 10.8827C55.2095 11.1147 55.3894 11.3094 55.6213 11.3201C55.7188 11.3241 55.8132 11.2947 55.8906 11.2361L58.3547 9.36536L60.4373 11.0067C60.6187 11.1508 60.884 11.1201 61.0266 10.9387C61.0881 10.8601 61.1201 10.7627 61.1174 10.6627L60.8933 4.20007L60.8906 4.19873ZM56.6799 25.4507C55.6919 26.2201 48.3108 26.744 48.3108 25.6494C48.468 21.4694 46.5974 21.2867 45.5559 21.2867C44.5708 21.2867 42.9067 21.5841 42.9067 23.8241C42.9067 26.1053 45.3374 27.3934 48.1907 28.9054C52.2427 31.0533 57.1506 33.6548 57.1506 40.1947C57.1506 46.4667 52.0547 49.9281 45.5586 49.9281C38.8533 49.9281 32.9919 47.2147 33.6533 37.8094C33.9133 36.7068 42.4399 36.9694 42.4399 37.8094C42.3333 41.6907 43.2188 42.832 45.4534 42.832C47.1694 42.832 47.948 41.8854 47.948 40.2947C47.948 37.884 45.4172 36.4614 42.5027 34.8268C38.5574 32.6121 33.9148 30.0054 33.9148 24.0214C33.9148 18.0521 38.02 14.0707 45.3494 14.0707C52.6787 14.0707 56.6799 17.9921 56.6799 25.4507Z" fill="#FFFFFF" fill-opacity="1.000000" fill-rule="evenodd"/>
		</g>
		<path id="Storybook" d="M8.74512 83.1826L10.2788 83.1826C10.2085 81.2051 8.38477 79.7285 5.85352 79.7285C3.34863 79.7285 1.37988 81.1875 1.37988 83.3848C1.37988 85.1514 2.65869 86.1973 4.70654 86.7861L6.31494 87.2476C7.69482 87.6299 8.92529 88.1177 8.92529 89.4185C8.92529 90.8511 7.54102 91.8003 5.72607 91.8003C4.16602 91.8003 2.78613 91.106 2.65869 89.625L1.02393 89.625C1.17773 91.7739 2.91357 93.2285 5.72607 93.2285C8.74512 93.2285 10.459 91.5674 10.459 89.4448C10.459 86.9927 8.12988 86.1973 6.77637 85.8413L5.44482 85.481C4.47363 85.2261 2.91357 84.7163 2.91357 83.3101C2.91357 82.0576 4.06494 81.1348 5.80518 81.1348C7.38721 81.1348 8.59131 81.8906 8.74512 83.1826ZM17.1315 83.1826L15.0353 83.1826L15.0353 80.8315L13.5236 80.8315L13.5236 83.1826L12.0426 83.1826L12.0426 84.4614L13.5236 84.4614L13.5236 90.5962C13.5236 92.3101 14.9078 93.1274 16.1867 93.1274C16.7492 93.1274 17.1051 93.0264 17.3117 92.9473L17.004 91.5938C16.8766 91.6201 16.6701 91.6685 16.3361 91.6685C15.6725 91.6685 15.0353 91.4663 15.0353 90.1875L15.0353 84.4614L17.1315 84.4614L17.1315 83.1826ZM23.2934 93.2065C25.9521 93.2065 27.7407 91.1851 27.7407 88.144C27.7407 85.0723 25.9521 83.0552 23.2934 83.0552C20.6347 83.0552 18.8418 85.0723 18.8418 88.144C18.8418 91.1851 20.6347 93.2065 23.2934 93.2065ZM23.2934 91.8486C21.2719 91.8486 20.3535 90.1128 20.3535 88.144C20.3535 86.1753 21.2719 84.4087 23.2934 84.4087C25.3105 84.4087 26.2334 86.1753 26.2334 88.144C26.2334 90.1128 25.3105 91.8486 23.2934 91.8486ZM30.0418 93L31.5491 93L31.5491 86.7861C31.5491 85.459 32.5994 84.4878 34.0321 84.4878C34.432 84.4878 34.8494 84.5625 34.9505 84.5889L34.9505 83.0552C34.7791 83.042 34.3836 83.0288 34.1595 83.0288C32.9818 83.0288 31.9622 83.6924 31.6019 84.6636L31.5008 84.6636L31.5008 83.1826L30.0418 83.1826L30.0418 93ZM38.0187 96.6826C39.381 96.6826 40.339 95.9575 40.9103 94.4326L45.0763 83.1826L43.4415 83.1826L40.7301 91.0049L40.629 91.0049L37.9176 83.1826L36.2828 83.1826L39.9127 93.0527L39.6315 93.8174C39.0822 95.3159 38.4054 95.4565 37.3024 95.1753L36.9201 96.5024C37.0739 96.5815 37.5089 96.6826 38.0187 96.6826ZM47.2768 93L48.7314 93L48.7314 91.4927L48.9115 91.4927C49.2455 92.0288 49.8827 93.2065 51.7768 93.2065C54.2289 93.2065 55.9428 91.2378 55.9428 88.1177C55.9428 85.0239 54.2289 83.0552 51.7504 83.0552C49.8344 83.0552 49.2455 84.2285 48.9115 84.7427L48.7841 84.7427L48.7841 79.9087L47.2768 79.9087L47.2768 93ZM48.7577 88.0913C48.7577 85.894 49.7289 84.4087 51.5702 84.4087C53.4906 84.4087 54.4355 86.0215 54.4355 88.0913C54.4355 90.1875 53.4643 91.8486 51.5702 91.8486C49.7553 91.8486 48.7577 90.3149 48.7577 88.0913ZM62.2338 93.2065C64.8924 93.2065 66.681 91.1851 66.681 88.144C66.681 85.0723 64.8924 83.0552 62.2338 83.0552C59.5751 83.0552 57.7821 85.0723 57.7821 88.144C57.7821 91.1851 59.5751 93.2065 62.2338 93.2065ZM62.2338 91.8486C60.2123 91.8486 59.2938 90.1128 59.2938 88.144C59.2938 86.1753 60.2123 84.4087 62.2338 84.4087C64.2508 84.4087 65.1737 86.1753 65.1737 88.144C65.1737 90.1128 64.2508 91.8486 62.2338 91.8486ZM72.9724 93.2065C75.6311 93.2065 77.4197 91.1851 77.4197 88.144C77.4197 85.0723 75.6311 83.0552 72.9724 83.0552C70.3137 83.0552 68.5207 85.0723 68.5207 88.144C68.5207 91.1851 70.3137 93.2065 72.9724 93.2065ZM72.9724 91.8486C70.9509 91.8486 70.0324 90.1128 70.0324 88.144C70.0324 86.1753 70.9509 84.4087 72.9724 84.4087C74.9895 84.4087 75.9123 86.1753 75.9123 88.144C75.9123 90.1128 74.9895 91.8486 72.9724 91.8486ZM79.7208 93L81.2281 93L81.2281 89.3262L82.2828 88.3462L85.961 93L87.877 93L83.421 87.375L87.5694 83.1826L85.7061 83.1826L81.4083 87.5552L81.2281 87.5552L81.2281 79.9087L79.7208 79.9087L79.7208 93Z" fill="#4B5563" fill-opacity="1.000000" fill-rule="evenodd"/>
	</g>
</svg>
