<svg width="69.818115" height="100.000000" viewBox="0 0 69.8181 100" fill="none" xmlns="http://www.w3.org/2000/svg" xmlns:xlink="http://www.w3.org/1999/xlink">
	<desc>
			Created with Pixso.
	</desc>
	<defs>
		<clipPath id="clip316_277">
			<rect id="icon-react" width="69.818184" height="64.000000" fill="white" fill-opacity="0"/>
		</clipPath>
		<clipPath id="clip316_276">
			<rect id="Tech" width="69.818184" height="100.000000" fill="white" fill-opacity="0"/>
		</clipPath>
	</defs>
	<g clip-path="url(#clip316_276)">
		<rect id="icon-react" width="69.818184" height="64.000000" fill="#FFFFFF" fill-opacity="0"/>
		<g clip-path="url(#clip316_277)">
			<path id="Vector" d="M41.5583 32C41.5583 35.7404 38.5815 38.7725 34.9092 38.7725C31.2368 38.7725 28.2598 35.7404 28.2598 32C28.2598 28.2596 31.2368 25.2275 34.9092 25.2275C38.5815 25.2275 41.5583 28.2596 41.5583 32Z" fill="#087EA4" fill-opacity="1.000000" fill-rule="evenodd"/>
			<path id="Vector" d="M34.9092 47.2382C16.5474 47.2382 1.66235 40.4158 1.66235 32C1.66235 23.5844 16.5474 16.762 34.9092 16.762C53.2708 16.762 68.1558 23.5844 68.1558 32C68.1558 40.4158 53.2708 47.2382 34.9092 47.2382Z" stroke="#087EA4" stroke-opacity="1.000000" stroke-width="3.000000"/>
			<path id="Vector" d="M21.9526 39.619C12.7717 23.4229 11.1301 6.88208 18.2859 2.67419C25.4417 -1.53369 38.6851 8.18469 47.8657 24.3809C57.0466 40.577 58.6882 57.1178 51.5325 61.3257C44.3767 65.5336 31.1333 55.8152 21.9526 39.619Z" stroke="#087EA4" stroke-opacity="1.000000" stroke-width="3.000000"/>
			<path id="Vector" d="M21.9524 24.381C31.1333 8.18481 44.3767 -1.53357 51.5325 2.67432C58.6882 6.8822 57.0464 23.4229 47.8657 39.619C38.6848 55.8152 25.4414 65.5336 18.2856 61.3257C11.1299 57.1179 12.7715 40.5771 21.9524 24.381Z" stroke="#087EA4" stroke-opacity="1.000000" stroke-width="3.000000"/>
		</g>
		<path id="React" d="M11.9954 93L13.5774 93L13.5774 87.8848L16.4426 87.8848C16.5569 87.8848 16.6667 87.8848 16.7766 87.8804L19.5364 93L21.3777 93L18.4202 87.5903C20.0857 87.0234 20.8679 85.6611 20.8679 83.9253C20.8679 81.6094 19.4836 79.9087 16.4163 79.9087L11.9954 79.9087L11.9954 93ZM13.5774 86.4565L13.5774 81.3149L16.3679 81.3149C18.4905 81.3149 19.3079 82.3521 19.3079 83.9253C19.3079 85.4941 18.4905 86.4565 16.3899 86.4565L13.5774 86.4565ZM27.3099 93.2065C29.305 93.2065 30.7596 92.209 31.221 90.7236L29.7621 90.3149C29.3797 91.3389 28.492 91.8486 27.3099 91.8486C25.5389 91.8486 24.3172 90.7061 24.2469 88.6011L31.3748 88.6011L31.3748 87.9639C31.3748 84.3076 29.1996 83.0552 27.1561 83.0552C24.4974 83.0552 22.7308 85.1514 22.7308 88.166C22.7308 91.1851 24.471 93.2065 27.3099 93.2065ZM24.2469 87.3003C24.348 85.771 25.429 84.4087 27.1561 84.4087C28.7909 84.4087 29.8412 85.6348 29.8412 87.3003L24.2469 87.3003ZM36.5668 93.2285C38.2763 93.2285 39.1727 92.3101 39.4804 91.6685L39.5551 91.6685L39.5551 93L41.0668 93L41.0668 86.5312C41.0668 83.4111 38.6893 83.0552 37.4325 83.0552C35.9515 83.0552 34.264 83.5649 33.495 85.3535L34.9276 85.8677C35.2616 85.1514 36.0482 84.3823 37.4852 84.3823C38.8739 84.3823 39.5551 85.1206 39.5551 86.3774L39.5551 86.4302C39.5551 87.1597 38.8168 87.0938 37.0238 87.3223C35.2045 87.5596 33.2138 87.9639 33.2138 90.2139C33.2138 92.1299 34.6991 93.2285 36.5668 93.2285ZM36.7953 91.875C35.5956 91.875 34.7255 91.3389 34.7255 90.2886C34.7255 89.1372 35.7714 88.7812 36.9491 88.6274C37.5863 88.5527 39.3002 88.3726 39.5551 88.0649L39.5551 89.4448C39.5551 90.6753 38.5839 91.875 36.7953 91.875ZM47.816 93.2065C49.9869 93.2065 51.4195 91.875 51.6744 90.1348L50.1671 90.1348C49.8858 91.2114 48.9893 91.8486 47.816 91.8486C46.0274 91.8486 44.876 90.3677 44.876 88.0913C44.876 85.8677 46.0494 84.4087 47.816 84.4087C49.1431 84.4087 49.9385 85.2261 50.1671 86.1226L51.6744 86.1226C51.4195 84.2812 49.8594 83.0552 47.7896 83.0552C45.1309 83.0552 43.3643 85.1514 43.3643 88.144C43.3643 91.084 45.0518 93.2065 47.816 93.2065ZM58.1455 83.1826L56.0493 83.1826L56.0493 80.8315L54.5376 80.8315L54.5376 83.1826L53.0567 83.1826L53.0567 84.4614L54.5376 84.4614L54.5376 90.5962C54.5376 92.3101 55.9219 93.1274 57.2007 93.1274C57.7632 93.1274 58.1192 93.0264 58.3257 92.9473L58.0181 91.5938C57.8906 91.6201 57.6841 91.6685 57.3501 91.6685C56.6865 91.6685 56.0493 91.4663 56.0493 90.1875L56.0493 84.4614L58.1455 84.4614L58.1455 83.1826Z" fill="#4B5563" fill-opacity="1.000000" fill-rule="evenodd"/>
	</g>
</svg>
